<svg width="319" height="204" viewBox="0 0 319 204" fill="none" xmlns="http://www.w3.org/2000/svg">
<rect opacity="0.6" x="318.217" y="0.755981" width="202.582" height="317.56" rx="12" transform="rotate(90 318.217 0.755981)" fill="url(#paint0_linear_39_256)"/>
<rect x="318.217" y="0.755981" width="202.582" height="317.56" rx="12" transform="rotate(90 318.217 0.755981)" fill="url(#paint1_linear_39_256)"/>
<path d="M183.018 68.2831H250.618V135.81L183.018 68.2831Z" fill="url(#paint2_linear_39_256)" fill-opacity="0.6"/>
<path d="M47.8192 135.81H115.419V68.2831L47.8192 135.81Z" fill="url(#paint3_linear_39_256)" fill-opacity="0.6"/>
<path d="M250.618 68.2831H318.217V135.81L250.618 68.2831Z" fill="url(#paint4_linear_39_256)" fill-opacity="0.6"/>
<path d="M115.419 135.81H183.018V68.2831L115.419 135.81Z" fill="url(#paint5_linear_39_256)" fill-opacity="0.6"/>
<mask id="mask0_39_256" style="mask-type:alpha" maskUnits="userSpaceOnUse" x="0" y="0" width="319" height="204">
<rect x="318.217" y="0.756042" width="202.582" height="317.56" rx="12" transform="rotate(90 318.217 0.756042)" fill="url(#paint6_linear_39_256)"/>
</mask>
<g mask="url(#mask0_39_256)">
<path d="M183.018 0.756042H250.618V68.2834L183.018 0.756042Z" fill="url(#paint7_linear_39_256)" fill-opacity="0.6"/>
<path d="M47.8192 68.2834H115.419V0.756042L47.8192 68.2834Z" fill="url(#paint8_linear_39_256)" fill-opacity="0.6"/>
<path d="M250.618 0.756042H318.217V68.2834L250.618 0.756042Z" fill="url(#paint9_linear_39_256)" fill-opacity="0.6"/>
<path d="M115.419 68.2834H183.018V0.756042L115.419 68.2834Z" fill="url(#paint10_linear_39_256)" fill-opacity="0.6"/>
<path d="M183.018 135.811H250.618V203.338L183.018 135.811Z" fill="url(#paint11_linear_39_256)" fill-opacity="0.6"/>
<path d="M47.8192 203.338H115.419V135.811L47.8192 203.338Z" fill="url(#paint12_linear_39_256)" fill-opacity="0.6"/>
<path d="M250.618 135.811H318.217V203.338L250.618 135.811Z" fill="url(#paint13_linear_39_256)" fill-opacity="0.6"/>
<path d="M115.419 203.338H183.018V135.811L115.419 203.338Z" fill="url(#paint14_linear_39_256)" fill-opacity="0.6"/>
</g>
<defs>
<linearGradient id="paint0_linear_39_256" x1="419.508" y1="0.755981" x2="419.508" y2="318.316" gradientUnits="userSpaceOnUse">
<stop stop-color="#FF77A0"/>
<stop offset="1" stop-color="#8770FD"/>
</linearGradient>
<linearGradient id="paint1_linear_39_256" x1="419.508" y1="0.755981" x2="419.508" y2="318.316" gradientUnits="userSpaceOnUse">
<stop stop-color="#FF77A0"/>
<stop offset="1" stop-color="#8770FD"/>
</linearGradient>
<linearGradient id="paint2_linear_39_256" x1="183.018" y1="68.2831" x2="183.018" y2="135.81" gradientUnits="userSpaceOnUse">
<stop stop-color="white" stop-opacity="0.5"/>
<stop offset="1" stop-color="white" stop-opacity="0.1"/>
</linearGradient>
<linearGradient id="paint3_linear_39_256" x1="183.018" y1="68.2831" x2="183.018" y2="135.81" gradientUnits="userSpaceOnUse">
<stop stop-color="white" stop-opacity="0.5"/>
<stop offset="1" stop-color="white" stop-opacity="0.1"/>
</linearGradient>
<linearGradient id="paint4_linear_39_256" x1="183.018" y1="68.2831" x2="183.018" y2="135.81" gradientUnits="userSpaceOnUse">
<stop stop-color="white" stop-opacity="0.5"/>
<stop offset="1" stop-color="white" stop-opacity="0.1"/>
</linearGradient>
<linearGradient id="paint5_linear_39_256" x1="183.018" y1="68.2831" x2="183.018" y2="135.81" gradientUnits="userSpaceOnUse">
<stop stop-color="white" stop-opacity="0.5"/>
<stop offset="1" stop-color="white" stop-opacity="0.1"/>
</linearGradient>
<linearGradient id="paint6_linear_39_256" x1="419.508" y1="0.756042" x2="419.508" y2="318.316" gradientUnits="userSpaceOnUse">
<stop stop-color="#E42C64"/>
<stop offset="1" stop-color="#614AD3"/>
</linearGradient>
<linearGradient id="paint7_linear_39_256" x1="183.018" y1="0.756042" x2="183.018" y2="68.2834" gradientUnits="userSpaceOnUse">
<stop stop-color="white" stop-opacity="0.5"/>
<stop offset="1" stop-color="white" stop-opacity="0.1"/>
</linearGradient>
<linearGradient id="paint8_linear_39_256" x1="183.018" y1="0.756042" x2="183.018" y2="68.2834" gradientUnits="userSpaceOnUse">
<stop stop-color="white" stop-opacity="0.5"/>
<stop offset="1" stop-color="white" stop-opacity="0.1"/>
</linearGradient>
<linearGradient id="paint9_linear_39_256" x1="183.018" y1="0.756042" x2="183.018" y2="68.2834" gradientUnits="userSpaceOnUse">
<stop stop-color="white" stop-opacity="0.5"/>
<stop offset="1" stop-color="white" stop-opacity="0.1"/>
</linearGradient>
<linearGradient id="paint10_linear_39_256" x1="183.018" y1="0.756042" x2="183.018" y2="68.2834" gradientUnits="userSpaceOnUse">
<stop stop-color="white" stop-opacity="0.5"/>
<stop offset="1" stop-color="white" stop-opacity="0.1"/>
</linearGradient>
<linearGradient id="paint11_linear_39_256" x1="183.018" y1="135.811" x2="183.018" y2="203.338" gradientUnits="userSpaceOnUse">
<stop stop-color="white" stop-opacity="0.5"/>
<stop offset="1" stop-color="white" stop-opacity="0.1"/>
</linearGradient>
<linearGradient id="paint12_linear_39_256" x1="183.018" y1="135.811" x2="183.018" y2="203.338" gradientUnits="userSpaceOnUse">
<stop stop-color="white" stop-opacity="0.5"/>
<stop offset="1" stop-color="white" stop-opacity="0.1"/>
</linearGradient>
<linearGradient id="paint13_linear_39_256" x1="183.018" y1="135.811" x2="183.018" y2="203.338" gradientUnits="userSpaceOnUse">
<stop stop-color="white" stop-opacity="0.5"/>
<stop offset="1" stop-color="white" stop-opacity="0.1"/>
</linearGradient>
<linearGradient id="paint14_linear_39_256" x1="183.018" y1="135.811" x2="183.018" y2="203.338" gradientUnits="userSpaceOnUse">
<stop stop-color="white" stop-opacity="0.5"/>
<stop offset="1" stop-color="white" stop-opacity="0.1"/>
</linearGradient>
</defs>
</svg>
