<svg width="19" height="24" viewBox="0 0 19 24" fill="none" xmlns="http://www.w3.org/2000/svg">
  <path fill-rule="evenodd" clip-rule="evenodd"
    d="M8 2.5C8 2.77614 7.77614 3 7.5 3C7.22386 3 7 2.77614 7 2.5C7 2.22386 7.22386 2 7.5 2C7.77614 2 8 2.22386 8 2.5ZM10 2.5C10 3.88071 8.88071 5 7.5 5C6.11929 5 5 3.88071 5 2.5C5 1.11929 6.11929 0 7.5 0C8.88071 0 10 1.11929 10 2.5ZM15.5 5C15.7761 5 16 4.77614 16 4.5C16 4.22386 15.7761 4 15.5 4C15.2239 4 15 4.22386 15 4.5C15 4.77614 15.2239 5 15.5 5ZM15.5 7C16.8807 7 18 5.88071 18 4.5C18 3.11929 16.8807 2 15.5 2C14.1193 2 13 3.11929 13 4.5C13 5.88071 14.1193 7 15.5 7ZM9.93728 7.5485C9.69715 7.55632 9.4522 7.60845 9.21216 7.71133L3.86685 10.0022C3.91106 10.0007 3.95544 10 4 10H9.05001C9.01721 9.83844 9 9.67123 9 9.5C9 8.71061 9.36587 8.00667 9.93728 7.5485ZM13.9939 9.32464C13.8455 6.57807 10.9943 4.77164 8.42432 5.87304L2.42432 8.44447C0.953587 9.07478 0 10.5209 0 12.121V14V20C0 22.2091 1.79086 24 4 24H13C15.2091 24 17 22.2091 17 20V18.95C18.1411 18.7184 19 17.7095 19 16.5C19 15.2905 18.1411 14.2816 17 14.05V14C17 12.1362 15.7252 10.5701 14 10.126V9.54962L13.9999 9.52172L14 9.5C14 9.44105 13.998 9.38257 13.9939 9.32464ZM11.9977 9.45194C11.9735 9.19834 11.7599 9 11.5 9C11.2239 9 11 9.22386 11 9.5C11 9.77614 11.2239 10 11.5 10C11.7707 10 11.9911 9.78494 11.9997 9.51637C11.9994 9.49478 11.9987 9.4733 11.9977 9.45194ZM11.5 12H4C2.89543 12 2 12.8954 2 14V20C2 21.1046 2.89543 22 4 22H13C14.1046 22 15 21.1046 15 20V19H12.5C11.1193 19 10 17.8807 10 16.5C10 15.1193 11.1193 14 12.5 14L15 14C15 12.8954 14.1046 12 13 12H11.5ZM16.5 16H12.5C12.2239 16 12 16.2239 12 16.5C12 16.7761 12.2239 17 12.5 17H16.5C16.7761 17 17 16.7761 17 16.5C17 16.2239 16.7761 16 16.5 16Z"
    fill="white" fill-opacity="0.7" />
</svg>