<svg width="22" height="20" viewBox="0 0 22 20" fill="none" xmlns="http://www.w3.org/2000/svg">
<path fill-rule="evenodd" clip-rule="evenodd" d="M2 5C2 3.34315 3.34315 2 5 2H13C14.6569 2 16 3.34315 16 5V6.20359L13.8016 8.40201C13.6192 8.15798 13.3281 8 13 8H5C4.44772 8 4 8.44771 4 9C4 9.55229 4.44772 10 5 10H12.2036L10.1863 12.0173C10.1259 12.0059 10.0637 12 10 12H5C4.44772 12 4 12.4477 4 13C4 13.5523 4.44772 14 5 14H8.99963L8.77382 14.9517C8.47947 16.1924 9.39294 17.3261 10.5713 17.4101C10.7688 17.4242 10.9738 17.4088 11.1818 17.3594L12.6256 17.0169C12.9862 16.9313 13.316 16.7472 13.5781 16.4851L16 14.0632V15C16 16.6569 14.6569 18 13 18H5C3.34315 18 2 16.6569 2 15V5ZM18 12.0629V15C18 17.7614 15.7614 20 13 20H5C2.23858 20 0 17.7614 0 15V5C0 2.23858 2.23858 0 5 0H13C15.5773 0 17.6991 1.94997 17.9706 4.45505C18.693 4.16201 19.5519 4.30842 20.1377 4.89428L21.239 5.99551C22.02 6.77656 22.02 8.04289 21.239 8.82394L18 12.0629ZM10.7201 15.4134L12.1636 15.0709L19.8247 7.40972L18.7235 6.30849L17.7225 7.30948C17.7175 7.31479 17.7123 7.32004 17.7071 7.32525L11.0627 13.9697L10.7201 15.4134ZM5 4C4.44772 4 4 4.44772 4 5C4 5.55228 4.44772 6 5 6H13C13.5523 6 14 5.55228 14 5C14 4.44772 13.5523 4 13 4H5Z" fill="#614AD3"/>
</svg>
