<svg width="24" height="21" viewBox="0 0 24 21" fill="none" xmlns="http://www.w3.org/2000/svg">
  <path fill-rule="evenodd" clip-rule="evenodd"
    d="M8.5 2C8.22386 2 8 2.22386 8 2.5C8 2.77614 8.22386 3 8.5 3C8.77614 3 9 2.77614 9 2.5C9 2.22386 8.77614 2 8.5 2ZM6 2.5C6 1.11929 7.11929 0 8.5 0C9.79861 0 10.866 0.990131 10.9883 2.25665C11.0482 2.29895 11.1044 2.34854 11.1556 2.40536L15.4842 7.21499C15.7946 7.0768 16.1383 7 16.5 7C16.9781 7 17.4248 7.1342 17.8046 7.36697L19.367 5.8046C19.1342 5.42482 19 4.97808 19 4.5C19 3.11929 20.1193 2 21.5 2C22.8807 2 24 3.11929 24 4.5C24 5.88071 22.8807 7 21.5 7C21.3274 7 21.159 6.98252 20.9963 6.94923C20.952 7.02894 20.8961 7.1039 20.8284 7.17157L18.9581 9.04188C18.9856 9.1904 19 9.34352 19 9.5C19 10.8807 17.8807 12 16.5 12C15.1193 12 14 10.8807 14 9.5C14 9.22044 14.0459 8.9516 14.1305 8.7006L10.1999 4.33318C9.75379 4.74699 9.15644 5 8.5 5C8.06679 5 7.65931 4.88981 7.30407 4.69593L4.95812 7.04188C4.98562 7.1904 5 7.34352 5 7.5C5 8.88071 3.88071 10 2.5 10C1.11929 10 0 8.88071 0 7.5C0 6.11929 1.11929 5 2.5 5C2.97808 5 3.42482 5.1342 3.8046 5.36697L6.07229 3.09928C6.02505 2.90729 6 2.70657 6 2.5ZM21 4.5C21 4.22386 21.2239 4 21.5 4C21.7761 4 22 4.22386 22 4.5C22 4.77614 21.7761 5 21.5 5C21.2239 5 21 4.77614 21 4.5ZM2.5 7C2.22386 7 2 7.22386 2 7.5C2 7.77614 2.22386 8 2.5 8C2.77614 8 3 7.77614 3 7.5C3 7.22386 2.77614 7 2.5 7ZM16.5 9C16.2239 9 16 9.22386 16 9.5C16 9.77614 16.2239 10 16.5 10C16.7761 10 17 9.77614 17 9.5C17 9.22386 16.7761 9 16.5 9ZM3 15C3 14.4477 2.55228 14 2 14C1.44772 14 1 14.4477 1 15L1 20C1 20.5523 1.44771 21 2 21C2.55228 21 3 20.5523 3 20L3 15ZM12 14C12.5523 14 13 14.4477 13 15V20C13 20.5523 12.5523 21 12 21C11.4477 21 11 20.5523 11 20V15C11 14.4477 11.4477 14 12 14ZM23 15C23 14.4477 22.5523 14 22 14C21.4477 14 21 14.4477 21 15V20C21 20.5523 21.4477 21 22 21C22.5523 21 23 20.5523 23 20V15ZM18 17C18 16.4477 17.5523 16 17 16C16.4477 16 16 16.4477 16 17V20C16 20.5523 16.4477 21 17 21C17.5523 21 18 20.5523 18 20V17ZM8 11C8 10.4477 7.55228 10 7 10C6.44772 10 6 10.4477 6 11L6 20C6 20.5523 6.44772 21 7 21C7.55229 21 8 20.5523 8 20V11Z"
    fill="white" fill-opacity="0.7" />
</svg>