<svg width="22" height="20" viewBox="0 0 22 20" fill="none" xmlns="http://www.w3.org/2000/svg">
<path fill-rule="evenodd" clip-rule="evenodd" d="M12.9677 5.29183L11.9511 2.16315C11.6518 1.24184 10.3484 1.24184 10.049 2.16315L9.03243 5.29183C8.63081 6.5279 7.47894 7.36478 6.17926 7.36478H2.88957C1.92085 7.36478 1.51808 8.60439 2.30179 9.17379L4.9632 11.1074C6.01466 11.8714 6.45464 13.2255 6.05301 14.4615L5.03645 17.5902C4.73709 18.5115 5.79157 19.2776 6.57529 18.7082L9.2367 16.7746C10.2882 16.0107 11.712 16.0107 12.7634 16.7746L15.4248 18.7082C16.2085 19.2776 17.263 18.5115 16.9637 17.5902L15.9471 14.4615C15.5455 13.2255 15.9854 11.8714 17.0369 11.1074L19.6983 9.17379C20.482 8.60439 20.0793 7.36478 19.1105 7.36478H15.8209C14.5212 7.36478 13.3693 6.52789 12.9677 5.29183ZM12.9022 1.85413C12.3035 0.0115117 9.69665 0.0115136 9.09794 1.85413L8.08137 4.98281C7.81362 5.80686 7.04571 6.36478 6.17926 6.36478H2.88957C0.952128 6.36478 0.146578 8.84401 1.71401 9.98281L4.37542 11.9164C5.07639 12.4257 5.36971 13.3285 5.10196 14.1525L4.08539 17.2812C3.48668 19.1238 5.59565 20.6561 7.16307 19.5173L9.82448 17.5836C10.5255 17.0743 11.4747 17.0743 12.1756 17.5836L14.837 19.5173C16.4045 20.6561 18.5134 19.1238 17.9147 17.2812L16.8982 14.1525C16.6304 13.3285 16.9237 12.4257 17.6247 11.9164L20.2861 9.98281C21.8535 8.84401 21.048 6.36478 19.1105 6.36478H15.8209C14.9544 6.36478 14.1865 5.80685 13.9187 4.98281L12.9022 1.85413Z" fill="white"/>
</svg>
