<svg width="19" height="24" viewBox="0 0 19 24" fill="none" xmlns="http://www.w3.org/2000/svg">
<path fill-rule="evenodd" clip-rule="evenodd" d="M17.7272 9.75L10.366 22.5C9.98107 23.1667 9.01882 23.1667 8.63392 22.5L1.2727 9.75C0.887801 9.08333 1.36893 8.25 2.13873 8.25H16.8612C17.631 8.25 18.1121 9.08333 17.7272 9.75ZM11.232 23C10.4622 24.3333 8.53769 24.3333 7.76789 23L0.406675 10.25C-0.363125 8.91667 0.599126 7.25 2.13873 7.25H16.8612C18.4008 7.25 19.363 8.91667 18.5932 10.25L11.232 23Z" fill="white"/>
<path fill-rule="evenodd" clip-rule="evenodd" d="M9.5 6C10.8807 6 12 4.88071 12 3.5C12 2.11929 10.8807 1 9.5 1C8.11929 1 7 2.11929 7 3.5C7 4.88071 8.11929 6 9.5 6ZM9.5 7C11.433 7 13 5.433 13 3.5C13 1.567 11.433 0 9.5 0C7.567 0 6 1.567 6 3.5C6 5.433 7.567 7 9.5 7Z" fill="white"/>
</svg>
