<svg width="278" height="436" viewBox="0 0 278 436" fill="none" xmlns="http://www.w3.org/2000/svg">
<rect x="278" y="435.318" width="278" height="435.318" rx="12" transform="rotate(-180 278 435.318)" fill="url(#paint0_linear_423_107)"/>
<path d="M185.333 249.985L185.333 342.651L92.6665 342.651L185.333 249.985Z" fill="url(#paint1_linear_423_107)" fill-opacity="0.6"/>
<path d="M92.6665 64.6511L92.6665 157.318L185.333 157.318L92.6665 64.6511Z" fill="url(#paint2_linear_423_107)" fill-opacity="0.6"/>
<path d="M185.333 342.651L185.333 435.318L92.6665 435.318L185.333 342.651Z" fill="url(#paint3_linear_423_107)" fill-opacity="0.6"/>
<path d="M92.6665 157.318L92.6665 249.985L185.333 249.985L92.6665 157.318Z" fill="url(#paint4_linear_423_107)" fill-opacity="0.6"/>
<mask id="mask0_423_107" style="mask-type:alpha" maskUnits="userSpaceOnUse" x="0" y="0" width="278" height="436">
<rect x="278" y="435.318" width="278" height="435.318" rx="12" transform="rotate(-180 278 435.318)" fill="url(#paint5_linear_423_107)"/>
</mask>
<g mask="url(#mask0_423_107)">
<path d="M278 249.985L278 342.651L185.333 342.651L278 249.985Z" fill="url(#paint6_linear_423_107)" fill-opacity="0.6"/>
<path d="M185.333 64.6512L185.333 157.318L278 157.318L185.333 64.6512Z" fill="url(#paint7_linear_423_107)" fill-opacity="0.6"/>
<path d="M278 342.651L278 435.318L185.333 435.318L278 342.651Z" fill="url(#paint8_linear_423_107)" fill-opacity="0.6"/>
<path d="M185.333 157.318L185.333 249.985L278 249.985L185.333 157.318Z" fill="url(#paint9_linear_423_107)" fill-opacity="0.6"/>
<path d="M92.6667 249.985L92.6667 342.651L-3.46823e-05 342.651L92.6667 249.985Z" fill="url(#paint10_linear_423_107)" fill-opacity="0.6"/>
<path d="M-2.25306e-05 64.6512L-2.65811e-05 157.318L92.6667 157.318L-2.25306e-05 64.6512Z" fill="url(#paint11_linear_423_107)" fill-opacity="0.6"/>
<path d="M92.6667 342.651L92.6667 435.318L-3.87329e-05 435.318L92.6667 342.651Z" fill="url(#paint12_linear_423_107)" fill-opacity="0.6"/>
<path d="M-2.65811e-05 157.318L-3.06317e-05 249.985L92.6667 249.985L-2.65811e-05 157.318Z" fill="url(#paint13_linear_423_107)" fill-opacity="0.6"/>
</g>
<path fill-rule="evenodd" clip-rule="evenodd" d="M50.5661 335.201C45.1233 333.22 40.9694 331.445 41.3359 331.258C41.7019 331.071 45.493 330.262 49.7603 329.459C54.0276 328.656 58.061 327.668 58.7229 327.263C59.8792 326.556 59.9258 326.24 59.899 319.291L59.8712 312.055L58.6367 315.218C57.9577 316.957 57.2306 318.774 57.0208 319.255C56.7982 319.766 55.2657 320.489 53.3336 320.996C51.5153 321.472 45.6937 323.003 40.3963 324.398L30.7649 326.934L30.6108 330.84L30.4567 334.746L44.5229 340.381C52.2591 343.48 59.0102 346.169 59.5255 346.356C60.3645 346.661 60.4619 346.287 60.4619 342.75L60.4619 338.804L50.5661 335.201ZM58.7229 349.493C57.7662 349.328 51.807 348.371 45.4796 347.368C39.1523 346.364 33.1931 345.41 32.2363 345.249L30.4973 344.954L30.4973 348.658C30.4973 352.067 30.5931 352.384 31.7013 352.635C33.2311 352.982 59.3206 357.126 59.9745 357.126C60.2425 357.126 60.4619 355.476 60.4619 353.46L60.4619 349.794L58.7229 349.493ZM59.6759 366.945C58.1172 362.636 53.6123 359.757 49.5928 360.5C47.3679 360.911 44.547 363.761 42.58 367.585C40.6933 371.253 38.5851 371.916 37.1998 369.277C36.0991 367.18 36.1713 364.012 37.3929 360.846L38.4026 358.228L35.9214 357.896C34.557 357.714 33.0491 357.46 32.5713 357.331C31.3888 357.013 30.4973 360.618 30.4973 365.716C30.4973 372.123 32.4787 375.922 36.8054 377.807C41.6961 379.939 45.1045 378.184 48.8148 371.623C50.885 367.963 52.3683 367.328 53.8055 369.489C54.7039 370.84 54.6873 374.616 53.7691 377.503C53.3785 378.73 53.6674 378.891 57.3889 379.509C59.2061 379.811 59.4506 379.711 59.9306 378.467C60.6984 376.477 60.54 369.334 59.6759 366.945ZM60.1029 392.105C59.9734 391.483 59.4592 390.616 58.9605 390.178C58.2905 389.589 38.8344 381.315 31.1662 378.358C30.6669 378.165 30.4973 379.107 30.4973 382.066L30.4973 386.032L32.7714 386.778L35.0455 387.523L35.1991 392.342L35.3527 397.16L33.8614 397.488C30.3587 398.257 30.4973 398.084 30.4973 401.693L30.4973 405.071L32.2363 404.73C33.1931 404.542 39.8746 403.184 47.0849 401.712L60.1944 399.035L60.2666 396.136C60.3062 394.541 60.2329 392.727 60.1029 392.105ZM46.1485 395.006L41.199 395.999L41.199 392.849C41.199 390.057 41.306 389.739 42.1354 390.068C42.6501 390.272 45.0986 391.174 47.5755 392.072C50.0524 392.97 51.8583 393.774 51.5886 393.859C51.319 393.943 48.8704 394.459 46.1485 395.006Z" fill="white"/>
<g opacity="0.6">
<rect x="139" y="95.8994" width="50.6434" height="66.8062" rx="5" transform="rotate(-180 139 95.8994)" fill="url(#paint14_linear_423_107)" stroke="white"/>
<rect x="131.321" y="69.5012" width="35.285" height="14.0092" rx="5" transform="rotate(-180 131.321 69.5012)" stroke="white"/>
<path d="M128.681 29.0934L128.681 57.0332" stroke="white"/>
<path d="M128.681 68.1003L128.681 96.0401" stroke="white"/>
<path d="M113.678 29.0934L113.678 55.492" stroke="white"/>
<path d="M113.678 69.6005L113.678 95.9991" stroke="white"/>
<path d="M98.6755 29.0934L98.6755 57.0332" stroke="white"/>
<path d="M98.6755 68.1003L98.6755 96.0401" stroke="white"/>
</g>
<path d="M247.995 376.555L247.995 390.934L233.616 390.934L247.995 376.555Z" fill="white"/>
<path d="M233.616 347.796L233.616 362.175L247.995 362.175L233.616 347.796Z" fill="white"/>
<path d="M247.995 390.934L247.995 405.313L233.616 405.313L247.995 390.934Z" fill="white"/>
<path d="M233.616 362.175L233.616 376.555L247.995 376.555L233.616 362.175Z" fill="white"/>
<g filter="url(#filter0_i_423_107)">
<path d="M160.796 30.7888L167.902 30.7888L167.902 28.9211L169.072 28.9211L169.636 32.6398L160.796 32.6398L160.796 30.7888ZM167.852 40.3015C168.51 40.3015 168.961 40.437 169.205 40.7082C169.448 40.9793 169.57 41.5106 169.57 42.3019L169.57 46.8093C169.57 47.6006 169.448 48.1319 169.205 48.403C168.961 48.6797 168.51 48.8181 167.852 48.8181L167.287 48.8181C166.861 48.8181 166.535 48.7516 166.308 48.6188C166.081 48.4916 165.813 48.1789 165.503 47.6808L162.373 42.5261L162.373 47.6227L163.668 47.6227L163.212 49.2414L162.514 49.2414C161.856 49.2414 161.405 49.103 161.161 48.8264C160.918 48.5552 160.796 48.0239 160.796 47.2326L160.796 39.8532L161.593 39.8532C161.98 39.8532 162.279 39.9335 162.49 40.0939C162.7 40.2599 162.935 40.5505 163.195 40.9655L166.93 47.0334L168.076 47.0334L168.076 42.0363L166.266 42.0363L166.715 40.3015L167.852 40.3015ZM160.796 54.944C160.796 54.1527 160.918 53.6187 161.161 53.342C161.405 53.0708 161.856 52.9352 162.514 52.9352L163.228 52.9352L163.602 54.7365L162.373 54.7365L162.373 59.468C162.373 59.8055 162.426 60.0296 162.531 60.1403C162.636 60.2565 162.846 60.3146 163.162 60.3146L163.801 60.3146C164.122 60.3146 164.335 60.2565 164.44 60.1403C164.551 60.0241 164.606 59.8 164.606 59.468L164.606 56.5046L166.034 56.5046L166.034 59.1442C166.034 59.4763 166.087 59.6976 166.192 59.8083C166.297 59.919 166.51 59.9743 166.831 59.9743L167.271 59.9743C167.597 59.9743 167.813 59.919 167.918 59.8083C168.023 59.6976 168.076 59.4763 168.076 59.1442L168.076 54.8112L166.98 54.8112L167.304 53.0764L167.852 53.0764C168.51 53.0764 168.961 53.2119 169.205 53.4831C169.448 53.7543 169.57 54.2855 169.57 55.0768L169.57 59.8249C169.57 60.6162 169.448 61.1475 169.205 61.4186C168.961 61.6898 168.51 61.8254 167.852 61.8254L167.055 61.8254C166.54 61.8254 166.158 61.7009 165.909 61.4518C165.66 61.2028 165.486 60.7629 165.386 60.132C165.32 60.8348 165.143 61.3495 164.855 61.676C164.567 62.0025 164.15 62.1657 163.602 62.1657L162.68 62.1657C161.961 62.1657 161.466 62.0108 161.195 61.7009C160.929 61.391 160.796 60.8376 160.796 60.0407L160.796 54.944ZM160.697 72.2429L162.73 72.2429L162.73 65.5939L164.199 65.5939L169.67 72.1682L169.67 74.0939L164.199 74.0939L164.199 76.2189L162.73 76.2189L162.73 74.0939L160.697 74.0939L160.697 72.2429ZM164.199 72.2429L168.126 72.2429L164.199 67.445L164.199 72.2429ZM164.706 86.1633L169.57 86.6613L169.57 94.2399L168.076 94.0905L168.076 87.9645L166.374 87.7653C166.452 88.5179 166.507 89.1792 166.54 89.7492C166.573 90.3247 166.59 90.8477 166.59 91.3181C166.59 92.7679 166.341 93.8553 165.843 94.5803C165.351 95.3052 164.609 95.6677 163.618 95.6677C162.589 95.6677 161.842 95.2858 161.377 94.5222C160.912 93.764 160.68 92.5355 160.68 90.8366C160.68 89.9457 160.71 89.1405 160.771 88.4211C160.832 87.7072 160.921 87.1013 161.037 86.6032L162.73 86.1633C162.575 87.021 162.459 87.829 162.382 88.5871C162.31 89.3508 162.274 90.084 162.274 90.7868C162.274 91.888 162.382 92.6628 162.597 93.111C162.819 93.5593 163.187 93.7834 163.701 93.7834C164.188 93.7834 164.537 93.5648 164.747 93.1276C164.958 92.6904 165.063 91.9517 165.063 90.9113C165.063 90.2473 165.032 89.5168 164.971 88.7199C164.911 87.923 164.822 87.0708 164.706 86.1633ZM164.756 100.897C164.684 100.886 164.612 100.878 164.54 100.872C164.468 100.867 164.371 100.864 164.249 100.864C163.403 100.864 162.877 100.975 162.672 101.196C162.473 101.423 162.373 101.918 162.373 102.682L162.373 105.131C162.373 105.734 162.448 106.149 162.597 106.376C162.747 106.608 163.024 106.724 163.427 106.724L163.909 106.724C164.318 106.724 164.595 106.594 164.739 106.334C164.888 106.08 164.963 105.565 164.963 104.79C164.963 104.165 164.944 103.526 164.905 102.873C164.872 102.225 164.822 101.567 164.756 100.897ZM166.084 101.013C166.183 101.683 166.258 102.339 166.308 102.981C166.363 103.628 166.391 104.265 166.391 104.89C166.391 106.306 166.225 107.278 165.893 107.803C165.566 108.329 164.977 108.592 164.125 108.592L162.938 108.592C162.207 108.592 161.668 108.348 161.319 107.862C160.97 107.375 160.796 106.616 160.796 105.587L160.796 101.877C160.796 100.77 160.99 100.012 161.377 99.6022C161.765 99.1927 162.473 98.988 163.502 98.988L164.656 98.988C166.288 98.988 167.55 99.5524 168.441 100.681C169.338 101.816 169.786 103.412 169.786 105.471C169.786 105.548 169.783 105.631 169.778 105.72C169.778 105.814 169.769 105.938 169.753 106.093L168.342 107.305L168.342 106.741C168.342 104.876 168.17 103.529 167.827 102.698C167.489 101.868 166.908 101.307 166.084 101.013ZM160.647 114.975L168.076 119.707L168.076 113.904L166.183 113.904L166.507 112.053L169.57 112.053L169.57 121.799L168.159 121.799L160.647 117.208L160.647 114.975ZM169.57 132.697C169.57 133.489 169.448 134.02 169.205 134.291C168.961 134.568 168.51 134.706 167.852 134.706L167.055 134.706C166.546 134.706 166.164 134.582 165.909 134.333C165.655 134.084 165.469 133.647 165.353 133.021C165.281 133.669 165.104 134.145 164.822 134.449C164.54 134.753 164.133 134.905 163.602 134.905L162.68 134.905C161.967 134.905 161.474 134.748 161.203 134.432C160.932 134.122 160.796 133.566 160.796 132.764L160.796 127.161C160.796 126.364 160.929 125.811 161.195 125.501C161.466 125.191 161.961 125.036 162.68 125.036L163.602 125.036C164.128 125.036 164.531 125.188 164.814 125.492C165.101 125.797 165.281 126.267 165.353 126.904C165.475 126.284 165.663 125.847 165.918 125.592C166.172 125.343 166.551 125.218 167.055 125.218L167.852 125.218C168.51 125.218 168.961 125.354 169.205 125.625C169.448 125.902 169.57 126.436 169.57 127.227L169.57 132.697ZM168.076 132.017L168.076 127.924C168.076 127.587 168.021 127.36 167.91 127.244C167.805 127.128 167.592 127.07 167.271 127.07L166.831 127.07C166.515 127.07 166.302 127.128 166.192 127.244C166.087 127.36 166.034 127.587 166.034 127.924L166.034 132.017C166.034 132.349 166.087 132.57 166.192 132.681C166.297 132.797 166.51 132.855 166.831 132.855L167.271 132.855C167.597 132.855 167.813 132.797 167.918 132.681C168.023 132.57 168.076 132.349 168.076 132.017ZM164.606 132.208L164.606 127.717C164.606 127.385 164.554 127.164 164.448 127.053C164.343 126.942 164.128 126.887 163.801 126.887L163.162 126.887C162.841 126.887 162.628 126.939 162.523 127.045C162.423 127.15 162.373 127.374 162.373 127.717L162.373 132.208C162.373 132.545 162.423 132.767 162.523 132.872C162.628 132.982 162.841 133.038 163.162 133.038L163.801 133.038C164.128 133.038 164.343 132.982 164.448 132.872C164.554 132.761 164.606 132.54 164.606 132.208ZM164.282 152.545C164.183 151.914 164.108 151.275 164.058 150.627C164.014 149.98 163.992 149.327 163.992 148.668C163.992 147.251 164.155 146.278 164.482 145.746C164.814 145.221 165.403 144.958 166.25 144.958L167.428 144.958C168.159 144.958 168.698 145.198 169.047 145.68C169.396 146.167 169.57 146.925 169.57 147.954L169.57 151.656C169.57 152.763 169.376 153.521 168.989 153.931C168.602 154.34 167.893 154.545 166.864 154.545L165.71 154.545C164.078 154.545 162.816 153.981 161.925 152.852C161.034 151.723 160.589 150.129 160.589 148.07C160.589 147.899 160.591 147.769 160.597 147.68C160.597 147.597 160.602 147.517 160.614 147.44L162.016 146.236L162.016 146.792C162.016 148.663 162.188 150.013 162.531 150.843C162.874 151.679 163.458 152.246 164.282 152.545ZM165.627 152.644C165.727 152.661 165.821 152.672 165.909 152.677C166.003 152.688 166.084 152.694 166.15 152.694C167.013 152.694 167.55 152.581 167.76 152.354C167.971 152.127 168.076 151.629 168.076 150.86L168.076 148.427C168.076 147.813 167.998 147.39 167.844 147.157C167.689 146.925 167.401 146.809 166.98 146.809L166.49 146.809C166.064 146.809 165.777 146.939 165.627 147.199C165.478 147.459 165.403 147.982 165.403 148.768C165.403 149.321 165.42 149.924 165.453 150.577C165.492 151.236 165.55 151.925 165.627 152.644ZM162.373 159.725L162.373 165.992L168.076 165.992L168.076 159.725L162.373 159.725ZM167.495 157.89C168.297 157.89 168.842 158.029 169.13 158.305C169.423 158.588 169.57 159.116 169.57 159.891L169.57 165.826C169.57 166.606 169.423 167.135 169.13 167.411C168.842 167.694 168.297 167.835 167.495 167.835L162.871 167.835C162.069 167.835 161.521 167.694 161.228 167.411C160.94 167.135 160.796 166.606 160.796 165.826L160.796 159.891C160.796 159.116 160.94 158.588 161.228 158.305C161.521 158.029 162.069 157.89 162.871 157.89L167.495 157.89ZM160.796 175.455L167.902 175.455L167.902 173.587L169.072 173.587L169.636 177.306L160.796 177.306L160.796 175.455ZM167.852 184.967C168.51 184.967 168.961 185.103 169.205 185.374C169.448 185.645 169.57 186.177 169.57 186.968L169.57 191.475C169.57 192.267 169.448 192.798 169.205 193.069C168.961 193.346 168.51 193.484 167.852 193.484L167.287 193.484C166.861 193.484 166.535 193.418 166.308 193.285C166.081 193.158 165.813 192.845 165.503 192.347L162.373 187.192L162.373 192.289L163.668 192.289L163.212 193.907L162.514 193.907C161.856 193.907 161.405 193.769 161.161 193.492C160.918 193.221 160.796 192.69 160.796 191.899L160.796 184.519L161.593 184.519C161.98 184.519 162.279 184.599 162.489 184.76C162.7 184.926 162.935 185.216 163.195 185.632L166.93 191.699L168.076 191.699L168.076 186.702L166.266 186.702L166.715 184.967L167.852 184.967ZM160.796 206.201C160.796 205.41 160.918 204.876 161.161 204.599C161.405 204.328 161.856 204.192 162.514 204.192L163.228 204.192L163.602 205.993L162.373 205.993L162.373 210.725C162.373 211.062 162.426 211.286 162.531 211.397C162.636 211.513 162.846 211.571 163.162 211.571L163.801 211.571C164.122 211.571 164.335 211.513 164.44 211.397C164.551 211.281 164.606 211.057 164.606 210.725L164.606 207.761L166.034 207.761L166.034 210.401C166.034 210.733 166.086 210.954 166.192 211.065C166.297 211.176 166.51 211.231 166.831 211.231L167.271 211.231C167.597 211.231 167.813 211.176 167.918 211.065C168.023 210.954 168.076 210.733 168.076 210.401L168.076 206.068L166.98 206.068L167.304 204.333L167.852 204.333C168.51 204.333 168.961 204.469 169.205 204.74C169.448 205.011 169.57 205.542 169.57 206.334L169.57 211.082C169.57 211.873 169.448 212.404 169.205 212.675C168.961 212.947 168.51 213.082 167.852 213.082L167.055 213.082C166.54 213.082 166.158 212.958 165.909 212.709C165.66 212.46 165.486 212.02 165.386 211.389C165.32 212.092 165.143 212.606 164.855 212.933C164.567 213.259 164.15 213.423 163.602 213.423L162.68 213.423C161.961 213.423 161.466 213.268 161.195 212.958C160.929 212.648 160.796 212.094 160.796 211.298L160.796 206.201ZM160.697 223.5L162.73 223.5L162.73 216.851L164.199 216.851L169.67 223.425L169.67 225.351L164.199 225.351L164.199 227.476L162.73 227.476L162.73 225.351L160.697 225.351L160.697 223.5ZM164.199 223.5L168.126 223.5L164.199 218.702L164.199 223.5ZM164.706 230.829L169.57 231.327L169.57 238.906L168.076 238.757L168.076 232.631L166.374 232.431C166.452 233.184 166.507 233.845 166.54 234.415C166.573 234.991 166.59 235.514 166.59 235.984C166.59 237.434 166.341 238.521 165.843 239.246C165.35 239.971 164.609 240.334 163.618 240.334C162.589 240.334 161.842 239.952 161.377 239.188C160.912 238.43 160.68 237.202 160.68 235.503C160.68 234.612 160.71 233.806 160.771 233.087C160.832 232.373 160.921 231.767 161.037 231.269L162.73 230.829C162.575 231.687 162.459 232.495 162.382 233.253C162.31 234.017 162.274 234.75 162.274 235.453C162.274 236.554 162.382 237.329 162.597 237.777C162.819 238.225 163.187 238.449 163.701 238.449C164.188 238.449 164.537 238.231 164.747 237.794C164.958 237.356 165.063 236.618 165.063 235.577C165.063 234.913 165.032 234.183 164.971 233.386C164.911 232.589 164.822 231.737 164.706 230.829ZM164.756 245.563C164.684 245.552 164.612 245.544 164.54 245.538C164.468 245.533 164.371 245.53 164.249 245.53C163.403 245.53 162.877 245.641 162.672 245.862C162.473 246.089 162.373 246.584 162.373 247.348L162.373 249.797C162.373 250.4 162.448 250.815 162.597 251.042C162.747 251.274 163.024 251.39 163.427 251.39L163.909 251.39C164.318 251.39 164.595 251.26 164.739 251C164.888 250.746 164.963 250.231 164.963 249.456C164.963 248.831 164.944 248.192 164.905 247.539C164.872 246.891 164.822 246.233 164.756 245.563ZM166.084 245.679C166.183 246.349 166.258 247.005 166.308 247.647C166.363 248.294 166.391 248.931 166.391 249.556C166.391 250.973 166.225 251.944 165.893 252.469C165.566 252.995 164.977 253.258 164.125 253.258L162.938 253.258C162.207 253.258 161.668 253.015 161.319 252.528C160.97 252.041 160.796 251.282 160.796 250.253L160.796 246.543C160.796 245.436 160.99 244.678 161.377 244.268C161.765 243.859 162.473 243.654 163.502 243.654L164.656 243.654C166.288 243.654 167.55 244.218 168.441 245.347C169.338 246.482 169.786 248.078 169.786 250.137C169.786 250.214 169.783 250.297 169.778 250.386C169.778 250.48 169.769 250.605 169.753 250.759L168.342 251.971L168.342 251.407C168.342 249.542 168.17 248.195 167.827 247.364C167.489 246.534 166.908 245.973 166.084 245.679Z" fill="url(#paint15_linear_423_107)"/>
</g>
<defs>
<filter id="filter0_i_423_107" x="160.589" y="28.9211" width="11.1973" height="225.337" filterUnits="userSpaceOnUse" color-interpolation-filters="sRGB">
<feFlood flood-opacity="0" result="BackgroundImageFix"/>
<feBlend mode="normal" in="SourceGraphic" in2="BackgroundImageFix" result="shape"/>
<feColorMatrix in="SourceAlpha" type="matrix" values="0 0 0 0 0 0 0 0 0 0 0 0 0 0 0 0 0 0 127 0" result="hardAlpha"/>
<feOffset dx="2" dy="1"/>
<feGaussianBlur stdDeviation="1"/>
<feComposite in2="hardAlpha" operator="arithmetic" k2="-1" k3="1"/>
<feColorMatrix type="matrix" values="0 0 0 0 0 0 0 0 0 0 0 0 0 0 0 0 0 0 0.15 0"/>
<feBlend mode="normal" in2="shape" result="effect1_innerShadow_423_107"/>
</filter>
<linearGradient id="paint0_linear_423_107" x1="417" y1="435.318" x2="417" y2="870.635" gradientUnits="userSpaceOnUse">
<stop stop-color="#E42C64"/>
<stop offset="1" stop-color="#614AD3"/>
</linearGradient>
<linearGradient id="paint1_linear_423_107" x1="185.333" y1="249.985" x2="92.6665" y2="249.985" gradientUnits="userSpaceOnUse">
<stop stop-color="white" stop-opacity="0.5"/>
<stop offset="1" stop-color="white" stop-opacity="0.1"/>
</linearGradient>
<linearGradient id="paint2_linear_423_107" x1="185.333" y1="249.985" x2="92.6665" y2="249.985" gradientUnits="userSpaceOnUse">
<stop stop-color="white" stop-opacity="0.5"/>
<stop offset="1" stop-color="white" stop-opacity="0.1"/>
</linearGradient>
<linearGradient id="paint3_linear_423_107" x1="185.333" y1="249.985" x2="92.6665" y2="249.985" gradientUnits="userSpaceOnUse">
<stop stop-color="white" stop-opacity="0.5"/>
<stop offset="1" stop-color="white" stop-opacity="0.1"/>
</linearGradient>
<linearGradient id="paint4_linear_423_107" x1="185.333" y1="249.985" x2="92.6665" y2="249.985" gradientUnits="userSpaceOnUse">
<stop stop-color="white" stop-opacity="0.5"/>
<stop offset="1" stop-color="white" stop-opacity="0.1"/>
</linearGradient>
<linearGradient id="paint5_linear_423_107" x1="417" y1="435.318" x2="417" y2="870.636" gradientUnits="userSpaceOnUse">
<stop stop-color="#E42C64"/>
<stop offset="1" stop-color="#614AD3"/>
</linearGradient>
<linearGradient id="paint6_linear_423_107" x1="278" y1="249.985" x2="185.333" y2="249.985" gradientUnits="userSpaceOnUse">
<stop stop-color="white" stop-opacity="0.5"/>
<stop offset="1" stop-color="white" stop-opacity="0.1"/>
</linearGradient>
<linearGradient id="paint7_linear_423_107" x1="278" y1="249.985" x2="185.333" y2="249.985" gradientUnits="userSpaceOnUse">
<stop stop-color="white" stop-opacity="0.5"/>
<stop offset="1" stop-color="white" stop-opacity="0.1"/>
</linearGradient>
<linearGradient id="paint8_linear_423_107" x1="278" y1="249.985" x2="185.333" y2="249.985" gradientUnits="userSpaceOnUse">
<stop stop-color="white" stop-opacity="0.5"/>
<stop offset="1" stop-color="white" stop-opacity="0.1"/>
</linearGradient>
<linearGradient id="paint9_linear_423_107" x1="278" y1="249.985" x2="185.333" y2="249.985" gradientUnits="userSpaceOnUse">
<stop stop-color="white" stop-opacity="0.5"/>
<stop offset="1" stop-color="white" stop-opacity="0.1"/>
</linearGradient>
<linearGradient id="paint10_linear_423_107" x1="92.6667" y1="249.985" x2="-3.09894e-05" y2="249.985" gradientUnits="userSpaceOnUse">
<stop stop-color="white" stop-opacity="0.5"/>
<stop offset="1" stop-color="white" stop-opacity="0.1"/>
</linearGradient>
<linearGradient id="paint11_linear_423_107" x1="92.6667" y1="249.985" x2="-3.09894e-05" y2="249.985" gradientUnits="userSpaceOnUse">
<stop stop-color="white" stop-opacity="0.5"/>
<stop offset="1" stop-color="white" stop-opacity="0.1"/>
</linearGradient>
<linearGradient id="paint12_linear_423_107" x1="92.6667" y1="249.985" x2="-3.09894e-05" y2="249.985" gradientUnits="userSpaceOnUse">
<stop stop-color="white" stop-opacity="0.5"/>
<stop offset="1" stop-color="white" stop-opacity="0.1"/>
</linearGradient>
<linearGradient id="paint13_linear_423_107" x1="92.6667" y1="249.985" x2="-3.09894e-05" y2="249.985" gradientUnits="userSpaceOnUse">
<stop stop-color="white" stop-opacity="0.5"/>
<stop offset="1" stop-color="white" stop-opacity="0.1"/>
</linearGradient>
<linearGradient id="paint14_linear_423_107" x1="140.948" y1="98.5193" x2="187.575" y2="162.319" gradientUnits="userSpaceOnUse">
<stop stop-color="#C4C4C4"/>
<stop offset="1" stop-color="#C4C4C4" stop-opacity="0.3"/>
</linearGradient>
<linearGradient id="paint15_linear_423_107" x1="156.791" y1="24.7707" x2="156.791" y2="371.331" gradientUnits="userSpaceOnUse">
<stop stop-color="#D0E4F0"/>
<stop offset="1" stop-color="#D7E3F9"/>
</linearGradient>
</defs>
</svg>
