<svg width="45" height="45" viewBox="0 0 45 45" fill="none" xmlns="http://www.w3.org/2000/svg">
<g filter="url(#filter0_b_22_2)">
<rect width="45" height="45" rx="15" fill="white" fill-opacity="0.2"/>
<rect x="1" y="1" width="43" height="43" rx="14" stroke="url(#paint0_linear_22_2)" stroke-opacity="0.5" stroke-width="2"/>
</g>
<path fill-rule="evenodd" clip-rule="evenodd" d="M34.1125 13.0002L29.3396 8.22724C29.0467 7.93434 28.5718 7.93435 28.2789 8.22724C27.986 8.52013 27.986 8.99501 28.2789 9.2879L31.7716 12.7805L25.4089 12.7805C22.2333 12.7805 19.6589 15.3549 19.6589 18.5306L19.6589 20.25H15C12.3766 20.25 10.25 22.3767 10.25 25V31C10.25 33.6234 12.3766 35.75 15 35.75H21C23.6234 35.75 25.75 33.6234 25.75 31V25C25.75 22.4299 23.7087 20.3365 21.1589 20.2526L21.1589 18.5306C21.1589 16.1833 23.0617 14.2805 25.4089 14.2805L31.7716 14.2805L28.2789 17.7732C27.986 18.0661 27.986 18.5409 28.2789 18.8338C28.5718 19.1267 29.0467 19.1267 29.3396 18.8338L34.1125 14.0609C34.4054 13.768 34.4054 13.2931 34.1125 13.0002ZM11.75 25C11.75 23.2051 13.2051 21.75 15 21.75H21C22.7949 21.75 24.25 23.2051 24.25 25V31C24.25 32.7949 22.7949 34.25 21 34.25H15C13.2051 34.25 11.75 32.7949 11.75 31V25Z" fill="url(#paint1_linear_22_2)"/>
<defs>
<filter id="filter0_b_22_2" x="-24" y="-24" width="93" height="93" filterUnits="userSpaceOnUse" color-interpolation-filters="sRGB">
<feFlood flood-opacity="0" result="BackgroundImageFix"/>
<feGaussianBlur in="BackgroundImage" stdDeviation="12"/>
<feComposite in2="SourceAlpha" operator="in" result="effect1_backgroundBlur_22_2"/>
<feBlend mode="normal" in="SourceGraphic" in2="effect1_backgroundBlur_22_2" result="shape"/>
</filter>
<linearGradient id="paint0_linear_22_2" x1="3.10345" y1="3.16216" x2="52.579" y2="23.4648" gradientUnits="userSpaceOnUse">
<stop stop-color="white"/>
<stop offset="1" stop-color="white" stop-opacity="0"/>
</linearGradient>
<linearGradient id="paint1_linear_22_2" x1="22.2911" y1="8.00757" x2="36" y2="37.5" gradientUnits="userSpaceOnUse">
<stop stop-color="white"/>
<stop offset="1" stop-color="white" stop-opacity="0"/>
</linearGradient>
</defs>
</svg>
