<svg width="317" height="202" viewBox="0 0 317 202" fill="none" xmlns="http://www.w3.org/2000/svg">
<g filter="url(#filter0_b_22_2)">
<rect width="317" height="202" rx="15" fill="white" fill-opacity="0.4"/>
<rect x="1" y="1" width="315" height="200" rx="14" stroke="url(#paint0_linear_22_2)" stroke-width="2"/>
</g>
<path fill-rule="evenodd" clip-rule="evenodd" d="M243.431 164.639C241.986 168.605 240.691 171.632 240.555 171.365C240.418 171.098 239.828 168.336 239.242 165.226C238.657 162.116 237.936 159.177 237.64 158.695C237.125 157.852 236.894 157.818 231.825 157.838L226.546 157.858L228.853 158.758C230.122 159.252 231.448 159.782 231.798 159.935C232.171 160.097 232.699 161.214 233.068 162.622C233.416 163.947 234.533 168.189 235.55 172.05L237.4 179.068L240.25 179.18L243.099 179.293L247.21 169.043C249.47 163.405 251.432 158.485 251.568 158.11C251.791 157.499 251.518 157.428 248.938 157.428H246.059L243.431 164.639ZM253.857 158.695C253.737 159.392 253.039 163.735 252.307 168.345C251.574 172.956 250.879 177.299 250.761 177.996L250.546 179.263H253.248C255.734 179.263 255.966 179.193 256.149 178.386C256.402 177.271 259.425 158.259 259.425 157.783C259.425 157.587 258.222 157.428 256.751 157.428H254.077L253.857 158.695ZM266.588 158C263.445 159.136 261.344 162.419 261.886 165.348C262.186 166.969 264.265 169.025 267.055 170.458C269.731 171.833 270.214 173.37 268.289 174.379C266.76 175.181 264.448 175.128 262.138 174.238L260.229 173.502L259.987 175.311C259.854 176.305 259.668 177.404 259.575 177.752C259.343 178.614 261.973 179.263 265.691 179.263C270.366 179.263 273.136 177.819 274.512 174.666C276.067 171.103 274.786 168.619 270.001 165.915C267.33 164.406 266.867 163.326 268.444 162.278C269.429 161.624 272.184 161.636 274.29 162.305C275.185 162.589 275.302 162.379 275.753 159.667C275.974 158.343 275.9 158.165 274.993 157.815C273.542 157.255 268.331 157.371 266.588 158ZM284.942 157.689C284.488 157.784 283.856 158.158 283.536 158.522C283.107 159.01 277.071 173.188 274.913 178.776C274.773 179.14 275.46 179.263 277.619 179.263H280.512L281.056 177.606L281.6 175.949L285.115 175.837L288.63 175.725L288.869 176.812C289.43 179.364 289.303 179.263 291.936 179.263H294.401L294.151 177.996C294.015 177.299 293.024 172.43 291.95 167.176L289.997 157.623L287.882 157.57C286.719 157.541 285.396 157.594 284.942 157.689ZM287.058 167.858L287.783 171.465H285.484C283.448 171.465 283.216 171.387 283.456 170.782C283.605 170.407 284.263 168.623 284.918 166.818C285.573 165.013 286.16 163.697 286.222 163.894C286.283 164.09 286.66 165.874 287.058 167.858Z" fill="white"/>
<path fill-rule="evenodd" clip-rule="evenodd" d="M69.8626 109.196C69.8626 103.673 65.3855 99.1958 59.8626 99.1958H29.1281C23.6053 99.1958 19.1281 103.673 19.1281 109.196V128.1C19.1281 133.623 23.6053 138.1 29.1281 138.1H59.8626C65.3855 138.1 69.8626 133.623 69.8626 128.1V109.196ZM67.8485 108.716C67.8579 108.874 67.8626 109.035 67.8626 109.196V117.648H50.6054V110.901C50.6054 110.131 50.4629 109.394 50.2028 108.716H67.8485ZM50.6054 119.648V126.394C50.6054 127.165 50.4628 127.902 50.2026 128.581H67.8484C67.8579 128.422 67.8626 128.262 67.8626 128.1V119.648H50.6054ZM67.4706 130.581H48.9459C47.8315 131.765 46.2499 132.504 44.4956 132.504C42.7413 132.504 41.1596 131.765 40.0453 130.581H21.5201C22.5641 133.785 25.5757 136.1 29.1281 136.1H59.8626C63.4151 136.1 66.4267 133.785 67.4706 130.581ZM38.3858 126.394C38.3858 127.165 38.5284 127.902 38.7886 128.581H21.1423C21.1329 128.422 21.1281 128.262 21.1281 128.1L21.1281 119.648H38.3858V126.394ZM21.1281 109.196L21.1281 117.648H38.3858V110.901C38.3858 110.131 38.5283 109.394 38.7884 108.716H21.1423C21.1329 108.874 21.1281 109.035 21.1281 109.196ZM67.4707 106.716C66.4268 103.511 63.4151 101.196 59.8626 101.196L29.1281 101.196C25.5756 101.196 22.5639 103.511 21.5201 106.716H40.0449C41.1593 105.531 42.7411 104.792 44.4956 104.792C46.2501 104.792 47.8319 105.531 48.9462 106.716H67.4707ZM44.4956 106.792C46.7654 106.792 48.6054 108.632 48.6054 110.901V126.394C48.6054 128.664 46.7654 130.504 44.4956 130.504C42.2258 130.504 40.3858 128.664 40.3858 126.394V110.901C40.3858 108.632 42.2258 106.792 44.4956 106.792Z" fill="url(#paint1_linear_22_2)"/>
<path d="M273.598 20.7701H284.088V31.2484L273.598 20.7701Z" fill="#C17ABF"/>
<path d="M252.619 31.2484H263.109V20.7701L252.619 31.2484Z" fill="#C17ABF"/>
<path d="M284.088 20.7701H294.577V31.2484L284.088 20.7701Z" fill="#C17ABF"/>
<path d="M263.109 31.2484H273.598V20.7701L263.109 31.2484Z" fill="#C17ABF"/>
<path d="M22.993 83.5524L22.993 76.4469L21.1254 76.4469V75.2765L24.8441 74.712L24.8441 83.5524H22.993ZM32.5057 76.4967C32.5057 75.8382 32.6413 75.3872 32.9125 75.1437C33.1836 74.9002 33.7149 74.7784 34.5062 74.7784L39.0135 74.7784C39.8049 74.7784 40.3361 74.9002 40.6073 75.1437C40.884 75.3872 41.0223 75.8382 41.0223 76.4967V77.0612C41.0223 77.4873 40.9559 77.8138 40.8231 78.0406C40.6958 78.2675 40.3832 78.5359 39.8851 78.8458L34.7303 81.9752L39.827 81.9752L39.827 80.6803L41.4457 81.1368V81.8341C41.4457 82.4926 41.3073 82.9436 41.0306 83.1871C40.7595 83.4306 40.2282 83.5524 39.4369 83.5524L32.0575 83.5524V82.7555C32.0575 82.3681 32.1377 82.0693 32.2982 81.859C32.4642 81.6487 32.7548 81.4135 33.1698 81.1534L39.2377 77.4181V76.2726L34.2406 76.2726V78.0822L32.5057 77.6339V76.4967ZM47.1483 83.5524C46.357 83.5524 45.823 83.4306 45.5463 83.1871C45.2751 82.9436 45.1395 82.4926 45.1395 81.8341V81.1202L46.9408 80.7467L46.9408 81.9752H51.6722C52.0098 81.9752 52.2339 81.9226 52.3446 81.8175C52.4608 81.7124 52.5189 81.5021 52.5189 81.1866V80.5475C52.5189 80.2265 52.4608 80.0135 52.3446 79.9083C52.2284 79.7976 52.0043 79.7423 51.6722 79.7423H48.7089L48.7089 78.3146H51.3485C51.6805 78.3146 51.9019 78.262 52.0126 78.1569C52.1233 78.0517 52.1786 77.8387 52.1786 77.5177V77.0778C52.1786 76.7513 52.1233 76.5354 52.0126 76.4303C51.9019 76.3252 51.6805 76.2726 51.3485 76.2726H47.0155V77.3683L45.2806 77.0446V76.4967C45.2806 75.8382 45.4162 75.3872 45.6874 75.1437C45.9585 74.9002 46.4898 74.7784 47.2811 74.7784H52.0292C52.8205 74.7784 53.3518 74.9002 53.6229 75.1437C53.8941 75.3872 54.0297 75.8382 54.0297 76.4967V77.2936C54.0297 77.8082 53.9052 78.1901 53.6561 78.4391C53.4071 78.6881 52.9672 78.8624 52.3363 78.962C53.0391 79.0284 53.5538 79.2055 53.8802 79.4933C54.2067 79.781 54.37 80.1989 54.37 80.7467V81.6681C54.37 82.3875 54.215 82.8828 53.9052 83.1539C53.5953 83.4196 53.0419 83.5524 52.245 83.5524H47.1483ZM64.4471 83.652V81.6183L57.7982 81.6183V80.149L64.3724 74.6788H66.2982L66.2982 80.149H68.4232V81.6183H66.2982V83.652H64.4471ZM64.4471 80.149L64.4471 76.2228L59.6493 80.149L64.4471 80.149ZM78.3676 79.6427L78.8656 74.7784L86.4442 74.7784L86.2948 76.2726H80.1688L79.9696 77.9742C80.7222 77.8968 81.3835 77.8414 81.9535 77.8082C82.529 77.775 83.052 77.7584 83.5223 77.7584C84.9722 77.7584 86.0596 78.0074 86.7845 78.5055C87.5095 78.998 87.8719 79.7395 87.8719 80.7301C87.8719 81.7594 87.4901 82.5065 86.7264 82.9713C85.9683 83.4362 84.7398 83.6686 83.0409 83.6686C82.1499 83.6686 81.3448 83.6381 80.6254 83.5773C79.9115 83.5164 79.3055 83.4279 78.8075 83.3116L78.3676 81.6183C79.2253 81.7732 80.0332 81.8894 80.7914 81.9669C81.5551 82.0389 82.2883 82.0748 82.9911 82.0748C84.0923 82.0748 84.8671 81.9669 85.3153 81.7511C85.7635 81.5297 85.9877 81.1617 85.9877 80.6471C85.9877 80.1601 85.7691 79.8115 85.3319 79.6012C84.8947 79.3909 84.156 79.2858 83.1156 79.2858C82.4515 79.2858 81.7211 79.3162 80.9242 79.3771C80.1273 79.4379 79.2751 79.5265 78.3676 79.6427ZM93.1014 79.5929C93.0904 79.6648 93.0821 79.7368 93.0765 79.8087C93.071 79.8807 93.0682 79.9775 93.0682 80.0992C93.0682 80.9459 93.1789 81.4716 93.4003 81.6764C93.6272 81.8756 94.1224 81.9752 94.8861 81.9752L97.3348 81.9752C97.938 81.9752 98.3531 81.9005 98.58 81.7511C98.8124 81.6017 98.9286 81.325 98.9286 80.921V80.4396C98.9286 80.0301 98.7985 79.7534 98.5385 79.6095C98.2839 79.4601 97.7692 79.3854 96.9945 79.3854C96.3692 79.3854 95.73 79.4047 95.077 79.4435C94.4296 79.4767 93.771 79.5265 93.1014 79.5929ZM93.2177 78.2648C93.8872 78.1652 94.543 78.0905 95.1849 78.0406C95.8324 77.9853 96.4688 77.9576 97.0941 77.9576C98.5108 77.9576 99.482 78.1237 100.008 78.4557C100.533 78.7822 100.796 79.3715 100.796 80.2238V81.4108C100.796 82.1412 100.553 82.6808 100.066 83.0294C99.5788 83.3781 98.8207 83.5524 97.7914 83.5524L94.0809 83.5524C92.9742 83.5524 92.216 83.3587 91.8065 82.9713C91.397 82.5839 91.1923 81.8756 91.1923 80.8463L91.1923 79.6925C91.1923 78.06 91.7567 76.7983 92.8856 75.9073C94.0201 75.0109 95.6166 74.5626 97.6752 74.5626C97.7526 74.5626 97.8357 74.5654 97.9242 74.5709C98.0183 74.5709 98.1428 74.5792 98.2977 74.5958L99.5096 76.007H98.9452C97.0803 76.007 95.7328 76.1785 94.9027 76.5216C94.0726 76.8592 93.5109 77.4402 93.2177 78.2648ZM107.18 83.7018L111.911 76.2726L106.109 76.2726V78.1652L104.258 77.8414V74.7784L114.003 74.7784V76.1896L109.412 83.7018H107.18ZM124.902 74.7784C125.693 74.7784 126.224 74.9002 126.495 75.1437C126.772 75.3872 126.911 75.8382 126.911 76.4967V77.2936C126.911 77.8027 126.786 78.1845 126.537 78.4391C126.288 78.6936 125.851 78.879 125.225 78.9952C125.873 79.0672 126.349 79.2443 126.653 79.5265C126.958 79.8087 127.11 80.2155 127.11 80.7467V81.6681C127.11 82.382 126.952 82.8745 126.637 83.1456C126.327 83.4168 125.771 83.5524 124.968 83.5524L119.365 83.5524C118.568 83.5524 118.015 83.4196 117.705 83.1539C117.395 82.8828 117.24 82.3875 117.24 81.6681V80.7467C117.24 80.221 117.392 79.817 117.697 79.5348C118.001 79.247 118.471 79.0672 119.108 78.9952C118.488 78.8735 118.051 78.6853 117.796 78.4308C117.547 78.1762 117.423 77.7972 117.423 77.2936V76.4967C117.423 75.8382 117.558 75.3872 117.829 75.1437C118.106 74.9002 118.64 74.7784 119.432 74.7784L124.902 74.7784ZM124.221 76.2726L120.129 76.2726C119.791 76.2726 119.564 76.3279 119.448 76.4386C119.332 76.5437 119.274 76.7568 119.274 77.0778V77.5177C119.274 77.8331 119.332 78.0462 119.448 78.1569C119.564 78.262 119.791 78.3146 120.129 78.3146L124.221 78.3146C124.553 78.3146 124.774 78.262 124.885 78.1569C125.001 78.0517 125.059 77.8387 125.059 77.5177V77.0778C125.059 76.7513 125.001 76.5354 124.885 76.4303C124.774 76.3252 124.553 76.2726 124.221 76.2726ZM124.412 79.7423L119.921 79.7423C119.589 79.7423 119.368 79.7949 119.257 79.9C119.147 80.0052 119.091 80.221 119.091 80.5475V81.1866C119.091 81.5076 119.144 81.7207 119.249 81.8258C119.354 81.9254 119.578 81.9752 119.921 81.9752L124.412 81.9752C124.75 81.9752 124.971 81.9254 125.076 81.8258C125.187 81.7207 125.242 81.5076 125.242 81.1866V80.5475C125.242 80.221 125.187 80.0052 125.076 79.9C124.965 79.7949 124.744 79.7423 124.412 79.7423ZM144.749 80.066C144.118 80.1656 143.479 80.2404 142.831 80.2902C142.184 80.3344 141.531 80.3566 140.872 80.3566C139.456 80.3566 138.482 80.1933 137.951 79.8668C137.425 79.5348 137.162 78.9454 137.162 78.0988V76.92C137.162 76.1896 137.403 75.65 137.884 75.3014C138.371 74.9528 139.129 74.7784 140.159 74.7784H143.861C144.967 74.7784 145.726 74.9721 146.135 75.3595C146.545 75.7469 146.749 76.4552 146.749 77.4845V78.6383C146.749 80.2708 146.185 81.5325 145.056 82.4235C143.927 83.3144 142.333 83.7599 140.275 83.7599C140.103 83.7599 139.973 83.7571 139.885 83.7516C139.802 83.7516 139.721 83.7461 139.644 83.735L138.44 82.3322H138.996C140.867 82.3322 142.217 82.1606 143.047 81.8175C143.883 81.4744 144.45 80.8906 144.749 80.066ZM144.849 78.7213C144.865 78.6217 144.876 78.5276 144.882 78.4391C144.893 78.345 144.898 78.2648 144.898 78.1984C144.898 77.3351 144.785 76.7983 144.558 76.588C144.331 76.3777 143.833 76.2726 143.064 76.2726H140.632C140.017 76.2726 139.594 76.3501 139.362 76.505C139.129 76.66 139.013 76.9477 139.013 77.3683V77.858C139.013 78.2841 139.143 78.5719 139.403 78.7213C139.663 78.8707 140.186 78.9454 140.972 78.9454C141.525 78.9454 142.129 78.9288 142.782 78.8956C143.44 78.8569 144.129 78.7988 144.849 78.7213ZM151.929 81.9752L158.196 81.9752V76.2726L151.929 76.2726V81.9752ZM150.095 76.8536C150.095 76.0512 150.233 75.5061 150.51 75.2184C150.792 74.9251 151.32 74.7784 152.095 74.7784L158.03 74.7784C158.81 74.7784 159.339 74.9251 159.616 75.2184C159.898 75.5061 160.039 76.0512 160.039 76.8536V81.4772C160.039 82.2796 159.898 82.8274 159.616 83.1207C159.339 83.4085 158.81 83.5524 158.03 83.5524L152.095 83.5524C151.32 83.5524 150.792 83.4085 150.51 83.1207C150.233 82.8274 150.095 82.2796 150.095 81.4772V76.8536ZM167.659 83.5524V76.4469H165.791L165.791 75.2765L169.51 74.712L169.51 83.5524H167.659ZM177.172 76.4967C177.172 75.8382 177.307 75.3872 177.578 75.1437C177.85 74.9002 178.381 74.7784 179.172 74.7784H183.68C184.471 74.7784 185.002 74.9002 185.273 75.1437C185.55 75.3872 185.688 75.8382 185.688 76.4967V77.0612C185.688 77.4873 185.622 77.8138 185.489 78.0406C185.362 78.2675 185.049 78.5359 184.551 78.8458L179.396 81.9752H184.493V80.6803L186.112 81.1368V81.8341C186.112 82.4926 185.973 82.9436 185.697 83.1871C185.425 83.4306 184.894 83.5524 184.103 83.5524L176.724 83.5524V82.7555C176.724 82.3681 176.804 82.0693 176.964 81.859C177.13 81.6487 177.421 81.4135 177.836 81.1534L183.904 77.4181V76.2726H178.907V78.0822L177.172 77.6339V76.4967ZM198.405 83.5524C197.614 83.5524 197.08 83.4306 196.803 83.1871C196.532 82.9436 196.396 82.4926 196.396 81.8341V81.1202L198.198 80.7467V81.9752H202.929C203.267 81.9752 203.491 81.9226 203.601 81.8175C203.718 81.7124 203.776 81.5021 203.776 81.1866V80.5475C203.776 80.2265 203.718 80.0135 203.601 79.9083C203.485 79.7976 203.261 79.7423 202.929 79.7423H199.966V78.3146H202.605C202.937 78.3146 203.159 78.262 203.269 78.1569C203.38 78.0517 203.435 77.8387 203.435 77.5177V77.0778C203.435 76.7513 203.38 76.5354 203.269 76.4303C203.159 76.3252 202.937 76.2726 202.605 76.2726H198.272V77.3683L196.537 77.0446V76.4967C196.537 75.8382 196.673 75.3872 196.944 75.1437C197.215 74.9002 197.747 74.7784 198.538 74.7784H203.286C204.077 74.7784 204.609 74.9002 204.88 75.1437C205.151 75.3872 205.286 75.8382 205.286 76.4967V77.2936C205.286 77.8082 205.162 78.1901 204.913 78.4391C204.664 78.6881 204.224 78.8624 203.593 78.962C204.296 79.0284 204.811 79.2055 205.137 79.4933C205.464 79.781 205.627 80.1989 205.627 80.7467V81.6681C205.627 82.3875 205.472 82.8828 205.162 83.1539C204.852 83.4196 204.299 83.5524 203.502 83.5524H198.405ZM215.704 83.652V81.6183L209.055 81.6183V80.149L215.629 74.6788H217.555L217.555 80.149H219.68V81.6183H217.555V83.652H215.704ZM215.704 80.149V76.2228L210.906 80.149L215.704 80.149ZM223.034 79.6427L223.532 74.7784L231.11 74.7784L230.961 76.2726L224.835 76.2726L224.636 77.9742C225.388 77.8968 226.05 77.8414 226.62 77.8082C227.195 77.775 227.718 77.7584 228.188 77.7584C229.638 77.7584 230.726 78.0074 231.451 78.5055C232.175 78.998 232.538 79.7395 232.538 80.7301C232.538 81.7594 232.156 82.5065 231.392 82.9713C230.634 83.4362 229.406 83.6686 227.707 83.6686C226.816 83.6686 226.011 83.6381 225.291 83.5773C224.578 83.5164 223.972 83.4279 223.474 83.3116L223.034 81.6183C223.891 81.7732 224.699 81.8894 225.457 81.9669C226.221 82.0389 226.954 82.0748 227.657 82.0748C228.758 82.0748 229.533 81.9669 229.981 81.7511C230.43 81.5297 230.654 81.1617 230.654 80.6471C230.654 80.1601 230.435 79.8115 229.998 79.6012C229.561 79.3909 228.822 79.2858 227.782 79.2858C227.118 79.2858 226.387 79.3162 225.59 79.3771C224.793 79.4379 223.941 79.5265 223.034 79.6427ZM237.767 79.5929C237.756 79.6648 237.748 79.7368 237.743 79.8087C237.737 79.8807 237.734 79.9775 237.734 80.0992C237.734 80.9459 237.845 81.4716 238.066 81.6764C238.293 81.8756 238.788 81.9752 239.552 81.9752H242.001C242.604 81.9752 243.019 81.9005 243.246 81.7511C243.478 81.6017 243.595 81.325 243.595 80.921V80.4396C243.595 80.0301 243.465 79.7534 243.204 79.6095C242.95 79.4601 242.435 79.3854 241.661 79.3854C241.035 79.3854 240.396 79.4047 239.743 79.4435C239.096 79.4767 238.437 79.5265 237.767 79.5929ZM237.884 78.2648C238.553 78.1652 239.209 78.0905 239.851 78.0406C240.498 77.9853 241.135 77.9576 241.76 77.9576C243.177 77.9576 244.148 78.1237 244.674 78.4557C245.199 78.7822 245.462 79.3715 245.462 80.2238V81.4108C245.462 82.1412 245.219 82.6808 244.732 83.0294C244.245 83.3781 243.487 83.5524 242.457 83.5524H238.747C237.64 83.5524 236.882 83.3587 236.473 82.9713C236.063 82.5839 235.858 81.8756 235.858 80.8463V79.6925C235.858 78.06 236.423 76.7983 237.552 75.9073C238.686 75.0109 240.283 74.5626 242.341 74.5626C242.419 74.5626 242.502 74.5654 242.59 74.5709C242.684 74.5709 242.809 74.5792 242.964 74.5958L244.176 76.007H243.611C241.746 76.007 240.399 76.1785 239.569 76.5216C238.739 76.8592 238.177 77.4402 237.884 78.2648Z" fill="url(#paint2_linear_22_2)"/>
<defs>
<filter id="filter0_b_22_2" x="-24" y="-24" width="365" height="250" filterUnits="userSpaceOnUse" color-interpolation-filters="sRGB">
<feFlood flood-opacity="0" result="BackgroundImageFix"/>
<feGaussianBlur in="BackgroundImage" stdDeviation="12"/>
<feComposite in2="SourceAlpha" operator="in" result="effect1_backgroundBlur_22_2"/>
<feBlend mode="normal" in="SourceGraphic" in2="effect1_backgroundBlur_22_2" result="shape"/>
</filter>
<linearGradient id="paint0_linear_22_2" x1="21.8621" y1="14.1946" x2="309.708" y2="199.561" gradientUnits="userSpaceOnUse">
<stop stop-color="white"/>
<stop offset="1" stop-color="white" stop-opacity="0"/>
</linearGradient>
<linearGradient id="paint1_linear_22_2" x1="21.9851" y1="99.7407" x2="55.2189" y2="135.194" gradientUnits="userSpaceOnUse">
<stop stop-color="#C17ABF"/>
<stop offset="1" stop-color="#BC7BE3" stop-opacity="0.2"/>
</linearGradient>
<linearGradient id="paint2_linear_22_2" x1="16.975" y1="87.231" x2="269.788" y2="87.231" gradientUnits="userSpaceOnUse">
<stop stop-color="white"/>
<stop offset="0.832954" stop-color="#FDFEFF"/>
<stop offset="0.96317" stop-color="#FDFEFF"/>
</linearGradient>
</defs>
</svg>
