<svg width="27" height="27" viewBox="0 0 27 27" fill="none" xmlns="http://www.w3.org/2000/svg">
<path d="M26 13.5C26 20.4036 20.4036 26 13.5 26C6.59644 26 1 20.4036 1 13.5C1 6.59644 6.59644 1 13.5 1C20.4036 1 26 6.59644 26 13.5Z" stroke="white" stroke-linecap="round" stroke-linejoin="round"/>
<path d="M8.41134 17.2397C6.06937 17.1436 5.24984 14.0851 7.22999 12.8309C8.11351 12.2713 8.52887 11.1952 8.25819 10.185C7.65169 7.92149 10.2631 6.15554 12.1115 7.59583L12.2613 7.71249C13.0815 8.35161 14.2147 8.40678 15.0932 7.85038L15.3173 7.70839C17.271 6.47094 19.6626 8.46792 18.7934 10.611C18.3939 11.5962 18.6969 12.727 19.5355 13.3805C21.3597 14.8019 20.2871 17.7271 17.9764 17.6323L17.7113 17.6214C16.6723 17.5787 15.7185 18.1931 15.3277 19.1567L15.2564 19.3326C14.3757 21.5042 11.2312 21.2805 10.6247 19.017C10.354 18.0068 9.4563 17.2826 8.41134 17.2397Z" stroke="white" stroke-linecap="round" stroke-linejoin="round"/>
</svg>
