<svg width="26" height="25" viewBox="0 0 26 25" fill="none" xmlns="http://www.w3.org/2000/svg">
<path fill-rule="evenodd" clip-rule="evenodd" d="M2 6.65854C2 4.0857 4.0857 2 6.65854 2H13.3904C15.9633 2 18.049 4.0857 18.049 6.65854C18.049 9.23138 15.9633 11.3171 13.3904 11.3171H11.1625C10.6094 11.3171 10.081 11.5461 9.70292 11.9497L7.78169 14.0004L7.78169 12.4402C7.78169 11.8199 7.27884 11.3171 6.65854 11.3171C4.73296 11.3171 3.08026 10.1488 2.37056 8.48239C2.76283 8.84484 3.3748 8.83556 3.75581 8.45455L5.35676 6.8536L6.71912 8.21596C7.50016 8.99701 8.76649 8.99701 9.54754 8.21596L10.9099 6.8536L12.2723 8.21596C13.0533 8.99701 14.3196 8.99701 15.1007 8.21596L17.1702 6.1465C17.5607 5.75597 17.5607 5.12281 17.1702 4.73228C16.7796 4.34176 16.1465 4.34176 15.7559 4.73228L13.6865 6.80175L12.3241 5.43939C11.5431 4.65834 10.2767 4.65834 9.49569 5.43939L8.13333 6.80175L6.77097 5.43939C5.98992 4.65834 4.72359 4.65834 3.94254 5.43939L2.3416 7.04033C2.20748 7.17445 2.11942 7.33718 2.07743 7.50888C2.02658 7.23317 2 6.94896 2 6.65854ZM6.65854 0C2.98113 0 0 2.98113 0 6.65854C0 10.0387 2.51869 12.8306 5.78169 13.2599V14.0004C5.78169 14.0989 5.78823 14.1946 5.80081 14.2874C5.77555 14.3753 5.76202 14.4681 5.76202 14.5641C5.76202 18.2127 8.63899 21.2227 12.2513 21.2227H14.6481L16.8523 23.5754C18.0431 24.8465 20.0293 23.9096 20.0293 22.289V21.1837C23.3026 20.8211 25.811 17.971 25.811 14.5641C25.811 11.1218 23.2501 8.24797 19.9269 7.93401C20.007 7.5212 20.049 7.09477 20.049 6.65854C20.049 2.98113 17.0678 0 13.3904 0H6.65854ZM19.2085 9.89924C18.0703 11.9382 15.8914 13.3171 13.3904 13.3171H11.1625L10.8493 13.6514C11.1831 13.562 11.5541 13.6483 11.816 13.9102L13.4169 15.5111L14.7793 14.1487C15.5603 13.3677 16.8267 13.3677 17.6077 14.1487L18.9701 15.5111L21.0396 13.4416C21.4301 13.0511 22.0632 13.0511 22.4538 13.4416C22.8443 13.8322 22.8443 14.4653 22.4538 14.8558L20.3843 16.9253C19.6032 17.7064 18.3369 17.7064 17.5559 16.9253L16.1935 15.563L14.8312 16.9253C14.0501 17.7064 12.7838 17.7064 12.0027 16.9253L10.4018 15.3244C10.1564 15.0789 10.0652 14.7377 10.1282 14.421L9.24123 15.3678C8.87738 15.7562 8.42912 15.955 7.97735 15.9963C8.5627 17.882 10.2725 19.2227 12.2513 19.2227H14.7242C15.2341 19.2227 15.7153 19.4365 16.0595 19.8039L18.0293 21.9064V20.5241C18.0293 19.8342 18.5795 19.2227 19.3217 19.2227C21.7726 19.2227 23.811 17.1658 23.811 14.5641C23.811 11.9624 21.7726 9.90558 19.3217 9.90558C19.2834 9.90558 19.2457 9.90343 19.2085 9.89924Z" fill="#614AD3"/>
</svg>
