<svg width="23" height="25" viewBox="0 0 23 25" fill="none" xmlns="http://www.w3.org/2000/svg">
<path fill-rule="evenodd" clip-rule="evenodd" d="M0.5 14C0.5 11.5147 2.51472 9.5 5 9.5H11C13.4853 9.5 15.5 11.5147 15.5 14V20C15.5 22.4853 13.4853 24.5 11 24.5H5C2.51472 24.5 0.5 22.4853 0.5 20V14ZM5 10.5C3.067 10.5 1.5 12.067 1.5 14V20C1.5 21.933 3.067 23.5 5 23.5H11C12.933 23.5 14.5 21.933 14.5 20V14C14.5 12.067 12.933 10.5 11 10.5H5Z" fill="white"/>
<path fill-rule="evenodd" clip-rule="evenodd" d="M18.7084 0.796836L21.8904 3.97882C22.0856 4.17408 22.0856 4.49066 21.8904 4.68592L18.7084 7.8679C18.5131 8.06317 18.1965 8.06317 18.0013 7.8679C17.806 7.67264 17.806 7.35606 18.0013 7.1608L20.3297 4.83237L13.3631 4.83237C10.8779 4.83237 8.86327 6.84685 8.86306 9.33199L8.86255 15.402L7.86255 15.402L7.86306 9.3319C7.86332 6.29452 10.3257 3.83237 13.3631 3.83237L20.3297 3.83237L18.0013 1.50394C17.806 1.30868 17.806 0.992099 18.0013 0.796836C18.1965 0.601574 18.5131 0.601574 18.7084 0.796836Z" fill="white"/>
</svg>
