<svg width="45" height="45" viewBox="0 0 45 45" fill="none" xmlns="http://www.w3.org/2000/svg">
<rect width="45" height="45" rx="22" fill="url(#paint0_linear_22_2)"/>
<rect x="12" y="20" width="14" height="14" rx="4" stroke="white" stroke-linejoin="round"/>
<path d="M19.4085 19.5301L19.9085 19.5301L19.4085 19.5301ZM32.9358 14.8841C33.131 14.6888 33.131 14.3722 32.9358 14.177L29.7538 10.995C29.5585 10.7997 29.2419 10.7997 29.0467 10.995C28.8514 11.1902 28.8514 11.5068 29.0467 11.7021L31.8751 14.5305L29.0467 17.3589C28.8514 17.5542 28.8514 17.8708 29.0467 18.0661C29.2419 18.2613 29.5585 18.2613 29.7538 18.0661L32.9358 14.8841ZM19.908 25.6002L19.9085 19.5301L18.9085 19.53L18.908 25.6001L19.908 25.6002ZM24.4085 15.0305L32.5822 15.0305L32.5822 14.0305L24.4085 14.0305L24.4085 15.0305ZM19.9085 19.5301C19.9087 17.045 21.9233 15.0305 24.4085 15.0305L24.4085 14.0305C21.3711 14.0305 18.9087 16.4927 18.9085 19.53L19.9085 19.5301Z" fill="white"/>
<defs>
<linearGradient id="paint0_linear_22_2" x1="22.5" y1="0" x2="22.5" y2="45" gradientUnits="userSpaceOnUse">
<stop stop-color="#614AD3"/>
<stop offset="1" stop-color="#E42C64"/>
</linearGradient>
</defs>
</svg>
