<svg width="290" height="186" viewBox="0 0 291 186" fill="none" xmlns="http://www.w3.org/2000/svg">
<rect x="290.161" width="185.301" height="290.161" rx="12" transform="rotate(90 290.161 0)" fill="url(#paint0_linear_23_80)"/>
<path d="M166.627 61.7668H228.394V123.534L166.627 61.7668Z" fill="url(#paint1_linear_23_80)" fill-opacity="0.6"/>
<path d="M43.0931 123.534H104.86V61.7668L43.0931 123.534Z" fill="url(#paint2_linear_23_80)" fill-opacity="0.6"/>
<path d="M228.394 61.7668H290.161V123.534L228.394 61.7668Z" fill="url(#paint3_linear_23_80)" fill-opacity="0.6"/>
<path d="M104.86 123.534H166.627V61.7668L104.86 123.534Z" fill="url(#paint4_linear_23_80)" fill-opacity="0.6"/>
<mask id="mask0_23_80" style="mask-type:alpha" maskUnits="userSpaceOnUse" x="0" y="0" width="291" height="186">
<rect x="290.161" width="185.301" height="290.161" rx="12" transform="rotate(90 290.161 0)" fill="url(#paint5_linear_23_80)"/>
</mask>
<g mask="url(#mask0_23_80)">
<path d="M166.627 0H228.394V61.767L166.627 0Z" fill="url(#paint6_linear_23_80)" fill-opacity="0.6"/>
<path d="M43.0933 61.767H104.86V0L43.0933 61.767Z" fill="url(#paint7_linear_23_80)" fill-opacity="0.6"/>
<path d="M228.394 0H290.161V61.767L228.394 0Z" fill="url(#paint8_linear_23_80)" fill-opacity="0.6"/>
<path d="M104.86 61.767H166.627V0L104.86 61.767Z" fill="url(#paint9_linear_23_80)" fill-opacity="0.6"/>
<path d="M166.627 123.534H228.394V185.301L166.627 123.534Z" fill="url(#paint10_linear_23_80)" fill-opacity="0.6"/>
<path d="M43.0933 185.301H104.86V123.534L43.0933 185.301Z" fill="url(#paint11_linear_23_80)" fill-opacity="0.6"/>
<path d="M228.394 123.534H290.161V185.301L228.394 123.534Z" fill="url(#paint12_linear_23_80)" fill-opacity="0.6"/>
<path d="M104.86 185.301H166.627V123.534L104.86 185.301Z" fill="url(#paint13_linear_23_80)" fill-opacity="0.6"/>
</g>
<path fill-rule="evenodd" clip-rule="evenodd" d="M223.428 151.596C222.107 155.224 220.925 157.993 220.8 157.748C220.675 157.504 220.136 154.978 219.601 152.133C219.066 149.289 218.407 146.6 218.137 146.159C217.666 145.388 217.455 145.357 212.823 145.375L208 145.394L210.108 146.217C211.268 146.669 212.479 147.154 212.799 147.294C213.14 147.442 213.622 148.464 213.96 149.751C214.277 150.963 215.298 154.844 216.227 158.375L217.918 164.795L220.522 164.897L223.125 165L226.881 155.624C228.946 150.468 230.738 145.968 230.863 145.624C231.067 145.065 230.817 145 228.46 145H225.83L223.428 151.596ZM232.955 146.159C232.845 146.797 232.207 150.769 231.538 154.986C230.869 159.204 230.233 163.176 230.125 163.814L229.929 164.973H232.398C234.67 164.973 234.881 164.909 235.049 164.17C235.28 163.151 238.043 145.761 238.043 145.325C238.043 145.146 236.943 145 235.599 145H233.155L232.955 146.159ZM244.587 145.524C241.715 146.563 239.796 149.566 240.291 152.245C240.565 153.728 242.465 155.608 245.013 156.919C247.459 158.177 247.901 159.582 246.142 160.505C244.744 161.239 242.632 161.191 240.521 160.377L238.777 159.704L238.556 161.357C238.434 162.267 238.265 163.272 238.179 163.59C237.967 164.379 240.37 164.973 243.768 164.973C248.039 164.973 250.57 163.652 251.827 160.768C253.248 157.508 252.078 155.236 247.705 152.763C245.265 151.383 244.842 150.395 246.283 149.437C247.183 148.838 249.7 148.849 251.625 149.461C252.443 149.721 252.549 149.529 252.962 147.048C253.163 145.837 253.096 145.674 252.267 145.354C250.941 144.842 246.179 144.948 244.587 145.524ZM261.358 145.239C260.943 145.326 260.365 145.668 260.073 146.001C259.68 146.447 254.165 159.416 252.194 164.527C252.066 164.86 252.693 164.973 254.666 164.973H257.309L257.807 163.457L258.303 161.941L261.515 161.839L264.727 161.737L264.945 162.731C265.458 165.065 265.343 164.973 267.748 164.973H270L269.772 163.814C269.647 163.176 268.742 158.722 267.761 153.916L265.977 145.178L264.044 145.13C262.981 145.104 261.772 145.153 261.358 145.239ZM263.291 154.541L263.953 157.84H261.853C259.993 157.84 259.781 157.768 260 157.216C260.136 156.872 260.737 155.24 261.335 153.589C261.934 151.938 262.47 150.735 262.527 150.914C262.583 151.094 262.927 152.726 263.291 154.541Z" fill="white"/>
<g opacity="0.6">
<rect x="63.9216" y="92.6504" width="33.7563" height="44.5297" rx="5" transform="rotate(90 63.9216 92.6504)" fill="url(#paint14_linear_23_80)" stroke="white"/>
<rect x="46.3259" y="97.7688" width="23.5192" height="9.33785" rx="4.66892" transform="rotate(90 46.3259 97.7688)" stroke="white"/>
<path d="M19.3921 99.5286H38.0154" stroke="white"/>
<path d="M45.3921 99.5286H64.0154" stroke="white"/>
<path d="M19.3921 109.529H36.988" stroke="white"/>
<path d="M46.3921 109.529H63.988" stroke="white"/>
<path d="M19.3921 119.529H38.0154" stroke="white"/>
<path d="M45.3921 119.529H64.0154" stroke="white"/>
</g>
<path d="M250.992 20H260.577V29.5844L250.992 20Z" fill="white"/>
<path d="M231.824 29.5844H241.408V20L231.824 29.5844Z" fill="white"/>
<path d="M260.577 20H270.161V29.5844L260.577 20Z" fill="white"/>
<path d="M241.408 29.5844H250.992V20L241.408 29.5844Z" fill="white"/>
<g filter="url(#filter0_i_23_80)">
<path d="M22.5289 76.7915L22.5289 69.686L20.6613 69.686V68.5156L24.38 67.9512L24.38 76.7915H22.5289ZM32.0416 69.7358C32.0416 69.0773 32.1772 68.6263 32.4484 68.3828C32.7195 68.1393 33.2508 68.0176 34.0421 68.0176L38.5494 68.0176C39.3408 68.0176 39.872 68.1393 40.1432 68.3828C40.4199 68.6263 40.5582 69.0773 40.5582 69.7358V70.3003C40.5582 70.7264 40.4918 71.0529 40.359 71.2798C40.2317 71.5067 39.9191 71.7751 39.421 72.085L34.2662 75.2144L39.3629 75.2144L39.3629 73.9194L40.9816 74.376V75.0732C40.9816 75.7318 40.8432 76.1828 40.5665 76.4263C40.2954 76.6698 39.7641 76.7915 38.9728 76.7915L31.5934 76.7915L31.5934 75.9946C31.5934 75.6073 31.6736 75.3084 31.8341 75.0981C32.0001 74.8879 32.2906 74.6527 32.7057 74.3926L38.7736 70.6572V69.5117L33.7765 69.5117V71.3213L32.0416 70.873V69.7358ZM46.6842 76.7915C45.8929 76.7915 45.3588 76.6698 45.0822 76.4263C44.811 76.1828 44.6754 75.7318 44.6754 75.0732V74.3594L46.4767 73.9858L46.4767 75.2144H51.2081C51.5457 75.2144 51.7698 75.1618 51.8805 75.0566C51.9967 74.9515 52.0548 74.7412 52.0548 74.4258V73.7866C52.0548 73.4657 51.9967 73.2526 51.8805 73.1475C51.7643 73.0368 51.5402 72.9814 51.2081 72.9814H48.2448V71.5537H50.8844C51.2164 71.5537 51.4378 71.5011 51.5485 71.396C51.6591 71.2909 51.7145 71.0778 51.7145 70.7568V70.3169C51.7145 69.9904 51.6591 69.7746 51.5485 69.6694C51.4378 69.5643 51.2164 69.5117 50.8844 69.5117H46.5514V70.6074L44.8165 70.2837V69.7358C44.8165 69.0773 44.9521 68.6263 45.2233 68.3828C45.4944 68.1393 46.0257 68.0176 46.817 68.0176H51.5651C52.3564 68.0176 52.8877 68.1393 53.1588 68.3828C53.43 68.6263 53.5656 69.0773 53.5656 69.7358V70.5327C53.5656 71.0474 53.441 71.4292 53.192 71.6782C52.943 71.9272 52.5031 72.1016 51.8722 72.2012C52.575 72.2676 53.0896 72.4447 53.4161 72.7324C53.7426 73.0202 53.9059 73.438 53.9059 73.9858V74.9072C53.9059 75.6266 53.7509 76.1219 53.441 76.3931C53.1311 76.6587 52.5778 76.7915 51.7809 76.7915H46.6842ZM63.983 76.8911V74.8574L57.3341 74.8574V73.3882L63.9083 67.918H65.8341L65.8341 73.3882H67.9591V74.8574H65.8341V76.8911H63.983ZM63.983 73.3882L63.983 69.4619L59.1852 73.3882L63.983 73.3882ZM77.9034 72.8818L78.4015 68.0176H85.9801L85.8307 69.5117H79.7047L79.5055 71.2134C80.2581 71.1359 80.9194 71.0806 81.4894 71.0474C82.0649 71.0142 82.5878 70.9976 83.0582 70.9976C84.5081 70.9976 85.5955 71.2466 86.3204 71.7446C87.0454 72.2371 87.4078 72.9787 87.4078 73.9692C87.4078 74.9985 87.026 75.7456 86.2623 76.2104C85.5042 76.6753 84.2757 76.9077 82.5768 76.9077C81.6858 76.9077 80.8807 76.8773 80.1613 76.8164C79.4474 76.7555 78.8414 76.667 78.3434 76.5508L77.9034 74.8574C78.7612 75.0124 79.5691 75.1286 80.3273 75.2061C81.0909 75.278 81.8242 75.314 82.527 75.314C83.6282 75.314 84.403 75.2061 84.8512 74.9902C85.2994 74.7689 85.5236 74.4009 85.5236 73.8862C85.5236 73.3993 85.305 73.0506 84.8678 72.8403C84.4306 72.63 83.6919 72.5249 82.6515 72.5249C81.9874 72.5249 81.257 72.5553 80.4601 72.6162C79.6632 72.6771 78.811 72.7656 77.9034 72.8818ZM92.6373 72.832C92.6263 72.904 92.618 72.9759 92.6124 73.0479C92.6069 73.1198 92.6041 73.2166 92.6041 73.3384C92.6041 74.1851 92.7148 74.7108 92.9362 74.9155C93.163 75.1147 93.6583 75.2144 94.422 75.2144L96.8707 75.2144C97.4739 75.2144 97.889 75.1396 98.1158 74.9902C98.3483 74.8408 98.4645 74.5641 98.4645 74.1602V73.6787C98.4645 73.2692 98.3344 72.9925 98.0743 72.8486C97.8198 72.6992 97.3051 72.6245 96.5304 72.6245C95.9051 72.6245 95.2659 72.6439 94.6129 72.6826C93.9655 72.7158 93.3069 72.7656 92.6373 72.832ZM92.7535 71.5039C93.4231 71.4043 94.0789 71.3296 94.7208 71.2798C95.3683 71.2244 96.0047 71.1968 96.63 71.1968C98.0467 71.1968 99.0179 71.3628 99.5436 71.6948C100.069 72.0213 100.332 72.6107 100.332 73.4629V74.6499C100.332 75.3804 100.089 75.9199 99.6017 76.2686C99.1147 76.6172 98.3566 76.7915 97.3273 76.7915L93.6168 76.7915C92.5101 76.7915 91.7519 76.5978 91.3424 76.2104C90.9329 75.8231 90.7281 75.1147 90.7281 74.0854V72.9316C90.7281 71.2992 91.2926 70.0374 92.4215 69.1465C93.5559 68.25 95.1525 67.8018 97.2111 67.8018C97.2885 67.8018 97.3715 67.8045 97.4601 67.8101C97.5542 67.8101 97.6787 67.8184 97.8336 67.835L99.0455 69.2461H98.4811C96.6162 69.2461 95.2687 69.4176 94.4386 69.7607C93.6085 70.0983 93.0468 70.6794 92.7535 71.5039ZM106.715 76.9409L111.447 69.5117H105.645V71.4043L103.794 71.0806V68.0176L113.539 68.0176V69.4287L108.948 76.9409H106.715ZM124.438 68.0176C125.229 68.0176 125.76 68.1393 126.031 68.3828C126.308 68.6263 126.446 69.0773 126.446 69.7358V70.5327C126.446 71.0418 126.322 71.4237 126.073 71.6782C125.824 71.9328 125.387 72.1182 124.761 72.2344C125.409 72.3063 125.885 72.4834 126.189 72.7656C126.493 73.0479 126.646 73.4546 126.646 73.9858V74.9072C126.646 75.6211 126.488 76.1136 126.172 76.3848C125.863 76.6559 125.306 76.7915 124.504 76.7915L118.901 76.7915C118.104 76.7915 117.551 76.6587 117.241 76.3931C116.931 76.1219 116.776 75.6266 116.776 74.9072V73.9858C116.776 73.4601 116.928 73.0562 117.233 72.7739C117.537 72.4862 118.007 72.3063 118.644 72.2344C118.024 72.1126 117.587 71.9245 117.332 71.6699C117.083 71.4154 116.959 71.0363 116.959 70.5327V69.7358C116.959 69.0773 117.094 68.6263 117.365 68.3828C117.642 68.1393 118.176 68.0176 118.967 68.0176L124.438 68.0176ZM123.757 69.5117L119.665 69.5117C119.327 69.5117 119.1 69.5671 118.984 69.6777C118.868 69.7829 118.81 69.9959 118.81 70.3169V70.7568C118.81 71.0723 118.868 71.2853 118.984 71.396C119.1 71.5011 119.327 71.5537 119.665 71.5537L123.757 71.5537C124.089 71.5537 124.31 71.5011 124.421 71.396C124.537 71.2909 124.595 71.0778 124.595 70.7568V70.3169C124.595 69.9904 124.537 69.7746 124.421 69.6694C124.31 69.5643 124.089 69.5117 123.757 69.5117ZM123.948 72.9814L119.457 72.9814C119.125 72.9814 118.904 73.034 118.793 73.1392C118.682 73.2443 118.627 73.4601 118.627 73.7866V74.4258C118.627 74.7467 118.68 74.9598 118.785 75.0649C118.89 75.1646 119.114 75.2144 119.457 75.2144L123.948 75.2144C124.285 75.2144 124.507 75.1646 124.612 75.0649C124.723 74.9598 124.778 74.7467 124.778 74.4258V73.7866C124.778 73.4601 124.723 73.2443 124.612 73.1392C124.501 73.034 124.28 72.9814 123.948 72.9814ZM144.285 73.3052C143.654 73.4048 143.015 73.4795 142.367 73.5293C141.72 73.5736 141.067 73.5957 140.408 73.5957C138.992 73.5957 138.018 73.4325 137.486 73.106C136.961 72.7739 136.698 72.1846 136.698 71.3379V70.1592C136.698 69.4287 136.939 68.8892 137.42 68.5405C137.907 68.1919 138.665 68.0176 139.694 68.0176H143.397C144.503 68.0176 145.262 68.2113 145.671 68.5986C146.081 68.986 146.285 69.6943 146.285 70.7236L146.285 71.8774C146.285 73.5099 145.721 74.7716 144.592 75.6626C143.463 76.5535 141.869 76.999 139.811 76.999C139.639 76.999 139.509 76.9963 139.421 76.9907C139.338 76.9907 139.257 76.9852 139.18 76.9741L137.976 75.5713H138.532C140.403 75.5713 141.753 75.3997 142.583 75.0566C143.419 74.7135 143.986 74.1297 144.285 73.3052ZM144.384 71.9604C144.401 71.8608 144.412 71.7668 144.418 71.6782C144.429 71.5841 144.434 71.5039 144.434 71.4375C144.434 70.5742 144.321 70.0374 144.094 69.8271C143.867 69.6169 143.369 69.5117 142.6 69.5117H140.168C139.553 69.5117 139.13 69.5892 138.898 69.7441C138.665 69.8991 138.549 70.1868 138.549 70.6074V71.0972C138.549 71.5233 138.679 71.811 138.939 71.9604C139.199 72.1099 139.722 72.1846 140.508 72.1846C141.061 72.1846 141.665 72.168 142.318 72.1348C142.976 72.096 143.665 72.0379 144.384 71.9604ZM151.465 75.2144L157.732 75.2144L157.732 69.5117L151.465 69.5117L151.465 75.2144ZM149.63 70.0928C149.63 69.2904 149.769 68.7453 150.046 68.4575C150.328 68.1642 150.856 68.0176 151.631 68.0176L157.566 68.0176C158.346 68.0176 158.875 68.1642 159.151 68.4575C159.434 68.7453 159.575 69.2904 159.575 70.0928L159.575 74.7163C159.575 75.5187 159.434 76.0666 159.151 76.3599C158.875 76.6476 158.346 76.7915 157.566 76.7915L151.631 76.7915C150.856 76.7915 150.328 76.6476 150.046 76.3599C149.769 76.0666 149.63 75.5187 149.63 74.7163L149.63 70.0928ZM167.195 76.7915L167.195 69.686H165.327V68.5156L169.046 67.9512L169.046 76.7915H167.195ZM176.708 69.7358C176.708 69.0773 176.843 68.6263 177.114 68.3828C177.386 68.1393 177.917 68.0176 178.708 68.0176H183.215C184.007 68.0176 184.538 68.1393 184.809 68.3828C185.086 68.6263 185.224 69.0773 185.224 69.7358V70.3003C185.224 70.7264 185.158 71.0529 185.025 71.2798C184.898 71.5067 184.585 71.7751 184.087 72.085L178.932 75.2144H184.029V73.9194L185.648 74.376V75.0732C185.648 75.7318 185.509 76.1828 185.233 76.4263C184.961 76.6698 184.43 76.7915 183.639 76.7915L176.259 76.7915V75.9946C176.259 75.6073 176.34 75.3084 176.5 75.0981C176.666 74.8879 176.957 74.6527 177.372 74.3926L183.44 70.6572V69.5117H178.443L178.443 71.3213L176.708 70.873V69.7358ZM197.941 76.7915C197.15 76.7915 196.616 76.6698 196.339 76.4263C196.068 76.1828 195.932 75.7318 195.932 75.0732V74.3594L197.734 73.9858V75.2144H202.465C202.803 75.2144 203.027 75.1618 203.137 75.0566C203.254 74.9515 203.312 74.7412 203.312 74.4258V73.7866C203.312 73.4657 203.254 73.2526 203.137 73.1475C203.021 73.0368 202.797 72.9814 202.465 72.9814H199.502V71.5537H202.141C202.473 71.5537 202.695 71.5011 202.805 71.396C202.916 71.2909 202.971 71.0778 202.971 70.7568V70.3169C202.971 69.9904 202.916 69.7746 202.805 69.6694C202.695 69.5643 202.473 69.5117 202.141 69.5117H197.808V70.6074L196.073 70.2837V69.7358C196.073 69.0773 196.209 68.6263 196.48 68.3828C196.751 68.1393 197.283 68.0176 198.074 68.0176H202.822C203.613 68.0176 204.144 68.1393 204.416 68.3828C204.687 68.6263 204.822 69.0773 204.822 69.7358V70.5327C204.822 71.0474 204.698 71.4292 204.449 71.6782C204.2 71.9272 203.76 72.1016 203.129 72.2012C203.832 72.2676 204.346 72.4447 204.673 72.7324C204.999 73.0202 205.163 73.438 205.163 73.9858V74.9072C205.163 75.6266 205.008 76.1219 204.698 76.3931C204.388 76.6587 203.835 76.7915 203.038 76.7915H197.941ZM215.24 76.8911V74.8574L208.591 74.8574V73.3882L215.165 67.918H217.091L217.091 73.3882H219.216V74.8574H217.091V76.8911H215.24ZM215.24 73.3882L215.24 69.4619L210.442 73.3882L215.24 73.3882ZM222.569 72.8818L223.068 68.0176L230.646 68.0176L230.497 69.5117L224.371 69.5117L224.172 71.2134C224.924 71.1359 225.585 71.0806 226.155 71.0474C226.731 71.0142 227.254 70.9976 227.724 70.9976C229.174 70.9976 230.262 71.2466 230.986 71.7446C231.711 72.2371 232.074 72.9787 232.074 73.9692C232.074 74.9985 231.692 75.7456 230.928 76.2104C230.17 76.6753 228.942 76.9077 227.243 76.9077C226.352 76.9077 225.547 76.8773 224.827 76.8164C224.113 76.7555 223.507 76.667 223.009 76.5508L222.569 74.8574C223.427 75.0124 224.235 75.1286 224.993 75.2061C225.757 75.278 226.49 75.314 227.193 75.314C228.294 75.314 229.069 75.2061 229.517 74.9902C229.965 74.7689 230.19 74.4009 230.19 73.8862C230.19 73.3993 229.971 73.0506 229.534 72.8403C229.097 72.63 228.358 72.5249 227.318 72.5249C226.653 72.5249 225.923 72.5553 225.126 72.6162C224.329 72.6771 223.477 72.7656 222.569 72.8818ZM237.303 72.832C237.292 72.904 237.284 72.9759 237.278 73.0479C237.273 73.1198 237.27 73.2166 237.27 73.3384C237.27 74.1851 237.381 74.7108 237.602 74.9155C237.829 75.1147 238.324 75.2144 239.088 75.2144H241.537C242.14 75.2144 242.555 75.1396 242.782 74.9902C243.014 74.8408 243.13 74.5641 243.13 74.1602V73.6787C243.13 73.2692 243 72.9925 242.74 72.8486C242.486 72.6992 241.971 72.6245 241.196 72.6245C240.571 72.6245 239.932 72.6439 239.279 72.6826C238.631 72.7158 237.973 72.7656 237.303 72.832ZM237.42 71.5039C238.089 71.4043 238.745 71.3296 239.387 71.2798C240.034 71.2244 240.671 71.1968 241.296 71.1968C242.713 71.1968 243.684 71.3628 244.21 71.6948C244.735 72.0213 244.998 72.6107 244.998 73.4629V74.6499C244.998 75.3804 244.755 75.9199 244.268 76.2686C243.781 76.6172 243.023 76.7915 241.993 76.7915H238.283C237.176 76.7915 236.418 76.5978 236.008 76.2104C235.599 75.8231 235.394 75.1147 235.394 74.0854V72.9316C235.394 71.2992 235.959 70.0374 237.088 69.1465C238.222 68.25 239.818 67.8018 241.877 67.8018C241.955 67.8018 242.038 67.8045 242.126 67.8101C242.22 67.8101 242.345 67.8184 242.5 67.835L243.712 69.2461H243.147C241.282 69.2461 239.935 69.4176 239.105 69.7607C238.275 70.0983 237.713 70.6794 237.42 71.5039Z" fill="url(#paint15_linear_23_80)"/>
</g>
<defs>
<filter id="filter0_i_23_80" x="20.6613" y="67.8018" width="226.337" height="10.1973" filterUnits="userSpaceOnUse" color-interpolation-filters="sRGB">
<feFlood flood-opacity="0" result="BackgroundImageFix"/>
<feBlend mode="normal" in="SourceGraphic" in2="BackgroundImageFix" result="shape"/>
<feColorMatrix in="SourceAlpha" type="matrix" values="0 0 0 0 0 0 0 0 0 0 0 0 0 0 0 0 0 0 127 0" result="hardAlpha"/>
<feOffset dx="2" dy="1"/>
<feGaussianBlur stdDeviation="1"/>
<feComposite in2="hardAlpha" operator="arithmetic" k2="-1" k3="1"/>
<feColorMatrix type="matrix" values="0 0 0 0 0 0 0 0 0 0 0 0 0 0 0 0 0 0 0.15 0"/>
<feBlend mode="normal" in2="shape" result="effect1_innerShadow_23_80"/>
</filter>
<linearGradient id="paint0_linear_23_80" x1="382.811" y1="0" x2="382.811" y2="290.161" gradientUnits="userSpaceOnUse">
<stop stop-color="#E42C64"/>
<stop offset="1" stop-color="#614AD3"/>
</linearGradient>
<linearGradient id="paint1_linear_23_80" x1="166.627" y1="61.7668" x2="166.627" y2="123.534" gradientUnits="userSpaceOnUse">
<stop stop-color="white" stop-opacity="0.5"/>
<stop offset="1" stop-color="white" stop-opacity="0.1"/>
</linearGradient>
<linearGradient id="paint2_linear_23_80" x1="166.627" y1="61.7668" x2="166.627" y2="123.534" gradientUnits="userSpaceOnUse">
<stop stop-color="white" stop-opacity="0.5"/>
<stop offset="1" stop-color="white" stop-opacity="0.1"/>
</linearGradient>
<linearGradient id="paint3_linear_23_80" x1="166.627" y1="61.7668" x2="166.627" y2="123.534" gradientUnits="userSpaceOnUse">
<stop stop-color="white" stop-opacity="0.5"/>
<stop offset="1" stop-color="white" stop-opacity="0.1"/>
</linearGradient>
<linearGradient id="paint4_linear_23_80" x1="166.627" y1="61.7668" x2="166.627" y2="123.534" gradientUnits="userSpaceOnUse">
<stop stop-color="white" stop-opacity="0.5"/>
<stop offset="1" stop-color="white" stop-opacity="0.1"/>
</linearGradient>
<linearGradient id="paint5_linear_23_80" x1="382.812" y1="0" x2="382.812" y2="290.161" gradientUnits="userSpaceOnUse">
<stop stop-color="#E42C64"/>
<stop offset="1" stop-color="#614AD3"/>
</linearGradient>
<linearGradient id="paint6_linear_23_80" x1="166.627" y1="0" x2="166.627" y2="61.767" gradientUnits="userSpaceOnUse">
<stop stop-color="white" stop-opacity="0.5"/>
<stop offset="1" stop-color="white" stop-opacity="0.1"/>
</linearGradient>
<linearGradient id="paint7_linear_23_80" x1="166.627" y1="0" x2="166.627" y2="61.767" gradientUnits="userSpaceOnUse">
<stop stop-color="white" stop-opacity="0.5"/>
<stop offset="1" stop-color="white" stop-opacity="0.1"/>
</linearGradient>
<linearGradient id="paint8_linear_23_80" x1="166.627" y1="0" x2="166.627" y2="61.767" gradientUnits="userSpaceOnUse">
<stop stop-color="white" stop-opacity="0.5"/>
<stop offset="1" stop-color="white" stop-opacity="0.1"/>
</linearGradient>
<linearGradient id="paint9_linear_23_80" x1="166.627" y1="0" x2="166.627" y2="61.767" gradientUnits="userSpaceOnUse">
<stop stop-color="white" stop-opacity="0.5"/>
<stop offset="1" stop-color="white" stop-opacity="0.1"/>
</linearGradient>
<linearGradient id="paint10_linear_23_80" x1="166.627" y1="123.534" x2="166.627" y2="185.301" gradientUnits="userSpaceOnUse">
<stop stop-color="white" stop-opacity="0.5"/>
<stop offset="1" stop-color="white" stop-opacity="0.1"/>
</linearGradient>
<linearGradient id="paint11_linear_23_80" x1="166.627" y1="123.534" x2="166.627" y2="185.301" gradientUnits="userSpaceOnUse">
<stop stop-color="white" stop-opacity="0.5"/>
<stop offset="1" stop-color="white" stop-opacity="0.1"/>
</linearGradient>
<linearGradient id="paint12_linear_23_80" x1="166.627" y1="123.534" x2="166.627" y2="185.301" gradientUnits="userSpaceOnUse">
<stop stop-color="white" stop-opacity="0.5"/>
<stop offset="1" stop-color="white" stop-opacity="0.1"/>
</linearGradient>
<linearGradient id="paint13_linear_23_80" x1="166.627" y1="123.534" x2="166.627" y2="185.301" gradientUnits="userSpaceOnUse">
<stop stop-color="white" stop-opacity="0.5"/>
<stop offset="1" stop-color="white" stop-opacity="0.1"/>
</linearGradient>
<linearGradient id="paint14_linear_23_80" x1="65.22" y1="94.3967" x2="96.2994" y2="136.922" gradientUnits="userSpaceOnUse">
<stop stop-color="#C4C4C4"/>
<stop offset="1" stop-color="#C4C4C4" stop-opacity="0.3"/>
</linearGradient>
<linearGradient id="paint15_linear_23_80" x1="16.5109" y1="80.7915" x2="247.511" y2="80.7915" gradientUnits="userSpaceOnUse">
<stop stop-color="#D0E4F0"/>
<stop offset="1" stop-color="#D7E3F9"/>
</linearGradient>
</defs>
</svg>
