<svg width="26" height="24" viewBox="0 0 26 24" fill="none" xmlns="http://www.w3.org/2000/svg">
<mask id="path-1-inside-1_22_213" fill="white">
<path fill-rule="evenodd" clip-rule="evenodd" d="M16.5 0C21.7467 0 26 4.25329 26 9.5C26 13.7529 23.2053 17.3531 19.3523 18.5644C17.982 18.9951 16.7312 19.8276 15.7875 20.9104C14.1375 22.8036 11.7085 24 9 24C8.52285 24 8.33663 23.4089 8.65779 23.056C9.40477 22.2352 10.0021 21.2759 10.4065 20.221C10.6407 19.6101 10.1542 19 9.5 19C4.25329 19 0 14.7467 0 9.5C0 4.25329 4.2533 0 9.5 0H16.5Z"/>
</mask>
<path d="M10.4065 20.221L11.3402 20.5789L10.4065 20.221ZM8.65779 23.056L7.91824 22.3829L8.65779 23.056ZM15.7875 20.9104L15.0336 20.2534L15.7875 20.9104ZM25 9.5C25 4.80558 21.1944 1 16.5 1V-1C22.299 -1 27 3.70101 27 9.5H25ZM19.0524 17.6104C22.5008 16.5264 25 13.3037 25 9.5H27C27 14.2021 23.9099 18.1799 19.6521 19.5184L19.0524 17.6104ZM9 23C11.4074 23 13.5655 21.9379 15.0336 20.2534L16.5413 21.5674C14.7096 23.6692 12.0096 25 9 25V23ZM11.3402 20.5789C10.8905 21.7519 10.2267 22.8178 9.39735 23.7291L7.91824 22.3829C8.58282 21.6527 9.1136 20.7998 9.47276 19.863L11.3402 20.5789ZM1 9.5C1 14.1944 4.80558 18 9.5 18V20C3.70101 20 -1 15.299 -1 9.5H1ZM9.5 1C4.80558 1 1 4.80558 1 9.5H-1C-1 3.70101 3.70101 -1 9.5 -1V1ZM16.5 1H9.5V-1H16.5V1ZM9.47276 19.863C9.4684 19.8744 9.46328 19.8997 9.46821 19.9305C9.4727 19.9586 9.48321 19.9773 9.49051 19.9869C9.50366 20.0042 9.51172 20 9.5 20V18C10.7408 18 11.8652 19.2096 11.3402 20.5789L9.47276 19.863ZM9 25C8.28012 25 7.77036 24.5273 7.58398 23.9858C7.40563 23.4677 7.49831 22.8443 7.91824 22.3829L9.39735 23.7291C9.49611 23.6206 9.52132 23.4692 9.47508 23.3348C9.4506 23.2637 9.39981 23.1785 9.30821 23.1083C9.21039 23.0334 9.097 23 9 23V25ZM19.6521 19.5184C18.4631 19.8921 17.3677 20.6192 16.5413 21.5674L15.0336 20.2534C16.0946 19.036 17.5009 18.0981 19.0524 17.6104L19.6521 19.5184Z" fill="white" mask="url(#path-1-inside-1_22_213)"/>
<line x1="7.5" y1="7.5" x2="20.5" y2="7.5" stroke="white" stroke-linecap="round" stroke-linejoin="round"/>
<line x1="7.5" y1="11.5" x2="20.5" y2="11.5" stroke="white" stroke-linecap="round" stroke-linejoin="round"/>
</svg>
